<?xml version="1.0" encoding="utf-8"?>
<!-- Generator: Adobe Illustrator 27.5.0, SVG Export Plug-In . SVG Version: 6.00 Build 0)  -->
<svg version="1.1" id="Capa_1" xmlns="http://www.w3.org/2000/svg" xmlns:xlink="http://www.w3.org/1999/xlink" x="0px" y="0px"
	 viewBox="0 0 2122 2122" style="enable-background:new 0 0 2122 2122;" xml:space="preserve">
<rect y="0.012" style="fill:#BFC1E3;" width="2121.305" height="2121.301"/>
<g>
	<path style="fill:#AAB7DE;" d="M1873.625,1355.988c-6.449-3.637-13.652-6.594-21.102-9.398c-7.172,1.375-16.02,0.688-23.754-0.301
		l-126.363,215.238c0,0-33.387,44.449-73.316,15.52c-15.34-12.145-20.871-25.801-20.895-39.152l-10.875,6.414l-13.148-19.25l0,0
		l33.43,302.496c-4.531,6.672-10.789,12.289-18.121,17.043c1.352,29.063,2.504,59.426,3.473,90.211
		c52.262-8.262,102.73-25.598,144.695-57.484c39.348-29.902,54.637-54.125,59.75-100.891c4.863-44.465-4.988-79.039,23.598-115.742
		c43.883-56.352,101.672-66.605,110.848-148.676C1948.918,1448.746,1934.277,1390.164,1873.625,1355.988z"/>
	<path style="fill:#AAB7DE;" d="M1214.402,1494.207l-26.887-26.758l69.535-110.082c21.34-42.863,71.727-46.859,71.727-46.859
		l78.094-27.383l0,0l0.258-0.086v-6.5c-1.898-0.125-3.727-0.395-5.441-0.848c-19.27-5.125-29.742-56.457-21.898-77.691
		c-0.09-0.926-0.16-1.836-0.246-2.758c-0.008-0.043-0.02-0.086-0.023-0.129c0.004,0.008,0.012,0.008,0.016,0.012
		c-0.691-7.488-1.188-14.828-1.332-21.828c-0.238-0.926-0.441-1.734-0.621-2.332c-2.328-7.707-5.633-15.023-7.066-22.891
		c-0.18-0.996-0.332-2.008-0.453-3.043c-95.094,13.473-191.195,49.355-225.227,147.332c-28.148,81.07,40.094,143.633,48.363,221.191
		C1199.418,1505.824,1207.105,1499.332,1214.402,1494.207z"/>
	<path style="fill:#AAB7DE;" d="M1262.234,1831.203l21.078-262.867l-19.004,16.191c0,0-46.117,31.043-74.348-9.379
		c-0.969-1.527-1.801-3.02-2.609-4.512c-18.305,58.961-68.141,104.34-68.414,170.871c-0.453,108.191,84.57,157.418,182.66,180.027
		c0.434-21.848,1.027-42.664,1.723-62.27C1265.293,1847.578,1262.234,1831.203,1262.234,1831.203z"/>
	<path style="fill:#AAB7DE;" d="M1451.023,1939.598c3.539,0.152,7.039,0.289,10.508,0.41l-6.398-88.102L1451.023,1939.598z"/>
	<path style="fill:#AAB7DE;" d="M1477.98,1239.945c-0.508-0.371-1.016-0.773-1.527-1.215v44.309l42.367,13.801
		c0,0,75.34,7.898,112.301,70.566l45.883,72.777l113.898-108.488c-0.746-4.91,1.09-10.684,4.023-16.254
		c-2.387-2.75-4.582-5.734-6.469-9.086c-13.824-24.594-6.375-55.309-22.203-82.609c-50.637-87.328-161.816-93.504-259.359-89.188
		c1.301,4.223,2.191,9.07,2.398,14.84C1507.215,1173.016,1490.754,1216.414,1477.98,1239.945z"/>
	<path style="fill:#DECDE6;" d="M531.234,1616.891l-8.012-29.465c-0.016,0.004-0.02,0.02-0.035,0.023l-0.258,0.031
		c-0.512,0-0.977-0.355-1.102-0.879c-1.707-7.398-3.894-15.414-6.008-23.168c-1.41-5.156-2.816-10.367-4.125-15.5l-38.543,44.543
		c-2.973-2.285-5.789-4.637-8.531-7.02c-13.598,7.918-44.195,20.512-67.797-8.25c-0.113-0.145-0.188-0.285-0.297-0.434
		c-4.43-4.645-7.289-10.742-9.082-17.129c-1.398-4.258-2.176-8.418-2.336-12.441c-1.27-11.855-0.051-21.887-0.051-21.887
		c-0.074-14.445,7.395-30.137,17.277-44.555c-2.652-10.988-3.324-17.875-3.324-17.875l81.777-102.578
		c12.988-21.012,36.113-28.594,36.113-28.594l47.41-16.625c-1.336-0.574-2.606-1.285-3.805-2.168
		c-11.008-8.113-5.934-22.691-3.207-33.641c6.797-27.359-5.281-56.688-5.242-84.891c0.004-2.773,0.152-5.867,0.441-9.18
		c-42.27,3.352-79.957,9.234-105.586,15.227c-83.195,19.445-166.828,53.301-215.766,119.352
		c-55.258,74.594,4.965,120.891,34.777,187.16c36.66,81.48-24.562,106.848-62.234,169.441
		c-100.617,167.168,151.019,213.375,270.82,229.852c2.375,0.328,4.801,0.645,7.266,0.953c3.578-85.398,8.617-166.199,15.691-217.887
		C503.246,1647.094,531.234,1616.891,531.234,1616.891z"/>
	<path style="fill:#DECDE6;" d="M626.215,1883.125h-0.004c-0.039,0-0.059-0.039-0.098-0.039l-2.617,29.453
		c1.488-0.051,2.965-0.102,4.453-0.168l-1.676-29.27C626.254,1883.102,626.234,1883.125,626.215,1883.125z"/>
	<path style="fill:#DECDE6;" d="M786.184,1625.875h-0.012c-0.535-0.305-0.723-0.996-0.41-1.535
		c7.387-12.809,14.281-23.629,20.945-34.098c0.262-0.41,0.516-0.82,0.777-1.227c8.035-13.621,14.75-24.637,20.355-33.59
		c0.031-0.059,0.066-0.117,0.094-0.172c-2.59-1.648-5.184-3.355-7.766-5.129c-12.449-8.547-25.777-17.477-39.02-26.992
		c-0.82,1.863-1.617,3.688-2.445,5.566c-6.406,14.527-13.023,29.551-20.305,46.566l-1.031,0.688l-0.273-0.055l-17.363,40.992
		c4.566,12.523,8.461,23.98,11.785,34.246c6.625,0.414,13.258,1,19.449,1.824C776.363,1643.258,781.426,1634.254,786.184,1625.875z"
		/>
	<path style="fill:#DECDE6;" d="M967.141,1448.008c-44.156-56.457-132.254-46.156-114.879-128.094
		c17.895-84.387-55.934-120.676-147.977-132.664c0.73,6.27,1.23,12.316,1.824,17.656c2.75,24.801,1.582,50.07-14.125,70.824
		c-7.57,10.004-17.957,17.23-27.234,25.34c-0.055,0.043-0.113,0.098-0.168,0.141v3.031l78.031,18.465
		c0.863,0.184,1.656,0.418,2.5,0.617c41.422,4.902,80.887,39.137,111.586,62.316c19.359,14.613,39.93,32.586,59.313,46.965
		c-2.859,9.293-6.242,18.488-10.023,27.539l11.977,11.395c51.285,35.566-6.074,102.867-6.074,102.867l-94.438,103.258
		c0.117,0.27,0.188,0.445,0.188,0.445c-0.867,0.578-1.703,1.301-2.516,2.105l-0.461,0.512c-5.656,5.949-10.105,16.426-15.758,21.254
		c-10.441,8.926-21.305,9.691-31.324,9.223c2.473,20.453,9.434,84.953,11.996,181.805c84.359-19.543,158.156-55.082,189.93-114.383
		c34.789-64.945-28.063-113.145-13.953-173.645C969.469,1545.293,1015.777,1510.203,967.141,1448.008z"/>
	<path style="fill:#A49FCF;" d="M634.269,930.266c0.387-0.031,0.774-0.059,1.164-0.094l-0.609-9.16L634.269,930.266z"/>
	<path style="fill:#A49FCF;" d="M658.519,229.992c-2.027,12.363-5.371,23.379-9.887,31.094c-0.035-0.117-0.102-0.223-0.141-0.34
		l1.883,35.543l90.715,20.152c41.238,15.039,41.238,66.777,41.238,66.777l5.84,118.648l4.637,306.891
		c-3.379,2.637-7.106,5.059-11.121,7.297l4.277,85.129c10.594-4.602,20.981-10.012,31.137-16.484
		c20.633-13.145,49.914-39.117,58.262-61.086c12.492-32.875-12.297-57.652-20.848-87.563
		c-19.543-68.379,29.836-99.887,82.402-136.652c94.055-65.777,116.668-193.004,51.469-282.203
		C921.988,226.379,780.598,225.523,658.519,229.992z"/>
	<path style="fill:#A49FCF;" d="M489.73,826.273c-9.656-1.5-15.219-2.504-15.219-2.504c4.316-42.367,7.105-97.551,8.914-152.836
		c-0.273-0.215-0.477-0.508-0.461-0.883l2.238-69.02c-1.348,0.207-3.742,0.516-6.863,0.703
		c-48.73,47.234-104.969-18.406-104.969-18.406l-122.805-138.93l-18.973,4.094c0,0-0.949,0.137-2.574,0.344
		c11.023,50.863,63.266,87.387,89.164,137.246c37.664,72.508-49.305,69.934-95.617,102.113
		c-51.43,35.734-75.555,104.457-55.707,158.215c28.168,76.305,107.719,84.949,187.918,88.941c41.25,2.055,83.855,2.707,126.602,2.18
		l5.297-77.074L489.73,826.273z"/>
	<path style="fill:#A49FCF;" d="M247.391,403.297l1.527-1.547l183.867,116.578l12.965-35.145c-2.211-4.188-4.184-8.406-5.793-12.633
		c0,0,1.512-5.77,4.23-15.008l-51.273-70.852l-19.285,2.23c0,0-27.809,1.313-41.769-3.039c0,0-28.121-10.91-17.145-11.719
		c-1.074-0.203-2.211-0.422-3.473-0.668c-0.613-0.117-1.004-0.707-0.891-1.32c0.023-0.129,0.137-0.195,0.199-0.305
		c-3.641-2.035-6.621-4.531-8.098-7.625c0,0-1.176-1.527,0.902-3.234c-0.484-0.102-0.902-0.195-1.41-0.301
		c-0.609-0.121-1.004-0.723-0.871-1.324c0.02-0.094,0.105-0.137,0.145-0.219c-1.184-0.543-2.082-1.078-2.457-1.594
		c0,0-5.152-6.73,2.699-8.719c-0.078-0.324-0.055-0.668,0.172-0.949c0.039-0.047,0.109-0.039,0.152-0.082
		c-3.488-3.809,2.023-5.73,2.023-5.73s6.402-1.133,20.238-0.672c0,0,21.34,0.566,46.453-1.703c0,0-13.367-17.34-3.715-24.203
		l21.781,23.336l5.188,6.625l1.668-1.383l69.047,53.863c10.645-26.941,23.887-53.855,37.949-66.836
		c3.152-4.715,5.977-4.652,5.977-4.652l72.762-24.5l-0.68-12.676c-19.867-1.211-30.531-23.555-35.367-39.258
		c-1.496-4.871-2.887-9.688-4.145-14.434c-130.18,4.164-263.387,36.656-306.363,157.449l6.984,6.16L247.391,403.297z"/>
	<path style="fill:#A2B8E0;" d="M1493.598,894.281l-1.586,27.789c1.426-0.02,2.848-0.031,4.285-0.051l-2.438-27.523
		C1493.754,894.43,1493.672,894.375,1493.598,894.281z"/>
	<path style="fill:#A2B8E0;" d="M1320.996,712.621c-5.656-4.836-10.109-15.336-15.773-21.277l-0.434-0.48
		c-0.82-0.805-1.652-1.527-2.527-2.109c0,0,0.07-0.176,0.188-0.441l-94.438-103.266c0,0-3.438-4.047-7.875-10.641
		c0.926,36.195-20.09,58.469-41.164,89.367c-55.5,81.379-46.523,177.84,49.746,223.383c37.449,17.715,83.82,26.641,131.258,31.063
		c2.215-104.933,9.75-174.898,12.344-196.371C1342.301,722.316,1331.438,721.551,1320.996,712.621z"/>
	<path style="fill:#A2B8E0;" d="M1687.828,589.918c-4.039,0.484-8.352,0.144-12.969-1.242c-2.715-0.508-5.617-1.527-8.637-2.895
		c-5.863,6.004-12.309,11.832-19.477,17.336l-38.535-44.543c-1.316,5.133-2.727,10.34-4.133,15.508
		c-2.105,7.746-4.297,15.758-6.008,23.164c-0.121,0.523-0.586,0.871-1.102,0.871l-0.246-0.027c-0.02-0.004-0.027-0.023-0.039-0.031
		l-8.02,29.477c0,0,27.992,30.199,33.773,72.418c6.902,50.473,11.867,128.695,15.434,211.855
		c33.461-5.496,65.723-13.926,94.691-27.035c38.238-17.309,86.277-46.519,103.52-86.07c18.41-42.223-12.234-81.031-3.719-124.82
		c15.449-79.461,94.266-112.262,79.664-204.309c-2.07-13.039-6-26.449-11.203-39.762L1755.172,564.82
		C1755.172,564.82,1716.469,591.316,1687.828,589.918z"/>
	<path style="fill:#A2B8E0;" d="M1362.535,586.59l-1.031-0.68c-7.273-17.008-13.895-32.031-20.293-46.555
		c-0.828-1.879-1.633-3.715-2.457-5.578c-13.234,9.52-26.57,18.445-39.02,26.992c-2.582,1.774-5.172,3.481-7.766,5.129
		c0.039,0.07,0.078,0.137,0.117,0.207c5.598,8.941,12.301,19.945,20.32,33.535c0.266,0.414,0.523,0.82,0.785,1.234
		c6.672,10.473,13.559,21.297,20.949,34.109c0.313,0.539,0.133,1.23-0.41,1.535l-0.012,0.004c4.758,8.379,9.82,17.379,15.219,27.078
		c6.188-0.824,12.824-1.41,19.449-1.82c3.324-10.266,7.227-21.727,11.789-34.246l-17.363-40.996L1362.535,586.59z"/>
	<path style="fill:#A2B8E0;" d="M1603.008,342.359c0,0,23.121,7.586,36.109,28.598l81.773,102.57c0,0-0.457,4.762-2.141,12.68
		c6.789-4.789,14.355-9.406,22.871-13.73c3.563-1.801,7.57-3.863,11.777-6.023c9.938-5.113,21.211-10.91,29.863-14.992
		c4.176-1.973,10.023-4.82,16.586-8.012c13.027-6.336,29.238-14.219,40.621-19.281c0.566-0.246,1.23,0.004,1.477,0.566
		c12.723-5.895,26.621-12.254,41.969-19.164l1.824,2.188l-0.016-10.066c-12.145-22.105-27.02-42.719-42.164-59.32
		c-68.977-75.621-167.91-104.711-268.723-112.801c4.551,36.441,7.199,73.156,9.668,110.301L1603.008,342.359z"/>
	<path style="fill:#A2B8E0;" d="M1201.957,482.168l11.957-11.383c-3.781-9.047-7.164-18.242-10.023-27.535
		c19.383-14.375,39.957-32.352,59.32-46.965c30.684-23.176,70.145-57.414,111.563-62.316c0.855-0.199,1.648-0.438,2.52-0.621
		l14.559-3.445c-3.539-33.27-9.199-67.832-6.297-100.203c-118.137,14.32-250.219,63.242-241.691,204.695
		c1.949,32.305,21.594,54.902,37.086,80.687C1182.402,503.105,1188.43,491.543,1201.957,482.168z"/>
	<path style="fill:#21263D;" d="M168.5,418.918c1.973,0,3.926-0.102,5.746-0.191c0.895-0.047,1.758-0.09,2.57-0.117
		c9.035-0.332,12.336-0.598,24.07-2.375c0.613-0.094,1.035-0.668,0.938-1.281c-0.086-0.613-0.672-1.035-1.273-0.945
		c-11.625,1.758-14.887,2.02-23.816,2.344c-0.82,0.035-1.695,0.078-2.602,0.121c-5.543,0.289-12.445,0.633-16.617-2.117
		c-0.469-0.313-1.055-0.176-1.426,0.227c-0.039,0.043-0.105,0.043-0.141,0.094c-0.199,0.301-0.188,0.645-0.082,0.965
		c0.078,0.227,0.191,0.453,0.406,0.594C159.586,418.418,164.09,418.918,168.5,418.918z"/>
	<path style="fill:#21263D;" d="M181.371,429.184h0.543l1.016-0.004c8.422-0.02,16.371-0.039,23.187-1.523
		c0.606-0.133,0.988-0.738,0.859-1.34c-0.133-0.609-0.738-1-1.34-0.863c-6.578,1.438-14.414,1.457-22.711,1.477h-1.016
		c-8.816-0.016-13.664-0.547-19.219-1.215c-1.547-0.184-3.164-0.379-4.953-0.563c-0.547-0.059-0.949,0.297-1.121,0.773
		c-0.027,0.082-0.113,0.133-0.121,0.223c-0.059,0.621,0.391,1.176,1.004,1.242c0.516,0.059,0.941,0.109,1.434,0.164
		c1.195,0.137,2.398,0.27,3.496,0.402C167.945,428.613,172.719,429.184,181.371,429.184z"/>
	<path style="fill:#21263D;" d="M184.898,440.148c3.988,0,9.043-0.109,16.664-0.293c0.625-0.016,1.117-0.531,1.102-1.148
		c-0.02-0.629-0.469-1.176-1.16-1.102c-19.895,0.48-22.07,0.438-33.297-0.637c-0.484-0.031-0.855,0.277-1.051,0.695
		c-0.055,0.109-0.16,0.188-0.172,0.32c-0.063,0.617,0.391,1.168,1.008,1.23c1.281,0.125,2.418,0.227,3.508,0.324
		C176.316,439.961,179.703,440.148,184.898,440.148z"/>
	<path style="fill:#21263D;" d="M229.945,413.969c3.844,4.699,12.414,7.016,15.23,7.781l0.297,0.039c0.492,0,0.953-0.332,1.09-0.832
		c0.16-0.605-0.195-1.223-0.793-1.383c-2.648-0.719-10.691-2.891-14.078-7.027c-1.574-1.926-2.652-4.289-3.797-6.793
		c-1.184-2.594-2.41-5.281-4.285-7.637c-0.383-0.48-1.066-0.555-1.551-0.191c-0.008,0.008-0.023,0.004-0.035,0.012
		c-0.48,0.383-0.574,1.094-0.184,1.582c0.141,0.176,0.234,0.395,0.371,0.578c1.484,2.027,2.598,4.328,3.633,6.594
		C227.004,409.215,228.191,411.824,229.945,413.969z"/>
	<path style="fill:#515DA7;" d="M637.949,839.453l0.266,25.035l-1.727,28.824v18.766l6.215,93.375
		c0.039,0.617-0.434,1.152-1.051,1.199h-0.008l1.871,30.941h149.289l-6.844-136.41l-4.277-85.129
		C747.695,835.019,692.359,840.16,637.949,839.453z"/>
	<path style="fill:#515DA7;" d="M634.301,913.109l-10.769-1.059c-0.574-0.055-1.012-0.547-1.012-1.121v-59.727
		c0-0.625,0.5-1.125,1.125-1.125c0.617,0,1.125,0.5,1.125,1.125v58.703l9.465,0.93v-43.293c0-0.621,0.504-1.125,1.125-1.125
		c0.625,0,1.129,0.504,1.129,1.125v25.769l1.727-28.824l-0.266-25.035c-61.105-0.797-121.008-8.957-148.219-13.18l-3.055,34.184
		l-5.297,77.074l-6.867,100.063h153.316l6.441-107.328l0.555-9.254L634.301,913.109z"/>
	<path style="fill:#E6817A;" d="M627.828,265.254l-0.461-8.695c-11.074,16.242-25.016,32.004-46.848,30.738
		c-0.012,0-0.023-0.004-0.043-0.004l0.68,12.676C608.652,298.508,622.164,278.832,627.828,265.254z"/>
	<path style="fill:#21263D;" d="M588.023,214.41c-1.328,0.941-1.797,3.199-0.926,5.504c0.969,2.594,3.164,4.16,4.906,3.508
		c1.738-0.652,2.363-3.273,1.398-5.863c-0.617-1.656-1.754-2.816-2.941-3.32C589.637,214.211,588.813,214.262,588.023,214.41z"/>
	<path style="fill:#21263D;" d="M552.945,219.457c-1.738,0.652-2.367,3.277-1.398,5.867c0.969,2.586,3.172,4.156,4.91,3.504
		c1.734-0.648,2.363-3.277,1.395-5.867C556.883,220.375,554.68,218.809,552.945,219.457z"/>
	<path style="fill:#21263D;" d="M568.707,230.074c0.055,1-2.199,2.363-3.688,3.266c-1.019,0.617-1.988,1.203-2.641,1.816
		c-1.332,1.242-1.164,2.527-0.941,3.18c0.844,2.539,5.098,4.277,8.863,4.688l0.121,0.004c0.57,0,1.059-0.422,1.121-1.004
		c0.062-0.617-0.383-1.172-1-1.242c-3.621-0.387-6.578-1.977-6.973-3.156c-0.043-0.133-0.121-0.383,0.348-0.824
		c0.476-0.453,1.348-0.977,2.266-1.535c2.293-1.387,4.891-2.961,4.773-5.305c-0.121-2.566-1.195-6.738-3.855-10.738
		c-0.348-0.52-1.051-0.656-1.566-0.313c-0.516,0.344-0.66,1.043-0.313,1.563C567.629,224.09,568.609,227.906,568.707,230.074z"/>
	<path style="fill:#21263D;" d="M645.527,210.969c4.578,4.055,6.418,11.918,1.555,18.059c-0.387,0.484-0.301,1.199,0.188,1.582
		l0.699,0.242l0.883-0.422c5.688-7.188,3.539-16.395-1.832-21.148c-4-3.547-11-5.359-17.523,1.23v1.594l1.598-0.004
		C636.508,206.629,642.098,207.93,645.527,210.969z"/>
	<path style="fill:#21263D;" d="M637.32,223.289c0-0.008,0.008-0.016,0.008-0.023c0.215-2.738,2.109-5.859,4.488-5.957
		c0.617-0.027,1.105-0.555,1.082-1.18c-0.031-0.617-0.551-1.043-1.176-1.074c-3.387,0.145-5.832,3.559-6.484,6.984
		c0.289,0.262,0.574,0.523,0.856,0.688C636.418,222.918,636.844,223.113,637.32,223.289z"/>
	<path style="fill:#21263D;" d="M640.352,226.113c0.82,0,1.637-0.113,2.383-0.398c0.578-0.223,0.875-0.867,0.656-1.453
		c-0.219-0.582-0.867-0.867-1.453-0.652c-1.348,0.512-3.219,0.188-4.617-0.32c-0.477-0.176-0.902-0.371-1.227-0.563
		c-0.281-0.164-0.567-0.426-0.856-0.688c-1.223-1.113-2.406-2.922-2.414-4.223c-0.012-0.625-0.57-1.094-1.141-1.113
		c-0.629,0.008-1.125,0.52-1.117,1.141c0.031,2.512,2.328,5.605,4.379,6.82C636.094,225.344,638.246,226.113,640.352,226.113z"/>
	<path style="fill:#21263D;" d="M597.031,215.699c0.391-0.484,0.316-1.191-0.164-1.586c-4.223-3.41-11.352-2.488-14.441,0.551
		l-0.016,1.594l0.801,0.336L584,216.27c0.93-0.91,2.398-1.551,4.023-1.859c0.789-0.148,1.613-0.199,2.438-0.172
		c1.828,0.059,3.645,0.543,4.988,1.629C595.938,216.262,596.644,216.18,597.031,215.699z"/>
	<path style="fill:#21263D;" d="M560.461,221.641l0.641-0.207c0.512-0.355,0.637-1.055,0.281-1.566
		c-1.731-2.465-3.949-3.211-5.504-3.402c-2.262-0.281-4.453,0.469-5.449,1.34c-0.477,0.41-0.52,1.121-0.109,1.59
		c0.414,0.469,1.121,0.516,1.594,0.105c0.504-0.441,2.023-0.996,3.691-0.797c1.602,0.195,2.922,1.023,3.926,2.461L560.461,221.641z"
		/>
	<path style="fill:#21263D;" d="M580.117,244.41c-2.449,3.238-7.168,5.25-12.613,5.391c-0.625,0.02-1.113,0.535-1.098,1.156
		c0.016,0.613,0.516,1.098,1.125,1.098h0.031c6.129-0.16,11.488-2.508,14.352-6.285c0.375-0.496,0.273-1.203-0.215-1.578
		C581.199,243.816,580.492,243.914,580.117,244.41z"/>
	<path style="fill:#21263D;" d="M581.887,309.035c4.473,14.543,14.707,22.449,30.426,23.504c0.754,0.047,1.574,0.078,2.434,0.078
		c10.773,0,29.25-4.277,35.543-21.16c0.219-0.586-0.078-1.234-0.664-1.453c-0.059-0.02-0.109,0.02-0.168,0.008
		c-0.531-0.102-1.082,0.133-1.277,0.656c-6.34,16.992-26.125,20.254-35.719,19.617c-14.688-0.977-24.25-8.355-28.414-21.914
		c-0.184-0.594-0.801-0.934-1.406-0.742l-0.004,0.004C582.043,307.82,581.711,308.441,581.887,309.035z"/>
	<path style="fill:#21263D;" d="M484.09,671.219c0.609,0,1.105-0.48,1.125-1.09l4.266-131.574l0.641-19.539l-2.16-2.98l-0.66,20.375
		l-1.984,61.031l-0.113,3.59l-2.238,69.02c-0.016,0.375,0.188,0.668,0.461,0.883c0.184,0.141,0.379,0.277,0.629,0.285H484.09z"/>
	<g>
		<path style="fill:#51365F;" d="M485.316,597.441l1.984-61.031l0.66-20.375l-43.773-60.492c-2.719,9.238-4.23,15.008-4.23,15.008
			c1.609,4.227,3.582,8.445,5.793,12.633c9.906,18.754,25.215,36.859,40.5,52.172C486.047,554.477,485.746,575.465,485.316,597.441z
			"/>
		<path style="fill:#51365F;" d="M788.168,501.867l-5.84-118.648c0,0,0-51.738-41.238-66.777l-90.715-20.152
			c0.523,5.379,0.078,9.859-0.918,13.723c0.059,0.012,0.109-0.027,0.168-0.008c0.586,0.219,0.883,0.867,0.664,1.453
			c-6.293,16.883-24.77,21.16-35.543,21.16c-0.859,0-1.68-0.031-2.434-0.078c-15.719-1.055-25.953-8.961-30.426-23.504
			c-0.176-0.594,0.156-1.215,0.75-1.402c-1.371-4.414-1.48-7.664-1.48-7.664l-72.762,24.5c0,0-2.824-0.063-5.977,4.652
			c-14.063,12.98-27.305,39.895-37.949,66.836l102.254,79.766l11.625-15.254l53.988,63.121c-0.176-0.414-0.168-0.887,0.18-1.219
			c0.453-0.422,1.168-0.402,1.598,0.047c7.934,8.383,12.727,14.82,17.356,21.035c4.281,5.746,8.332,11.18,14.637,17.973
			c2.547-2.594,6.039-6.504,10.246-11.438c10.75-12.625,26.387-32.328,44.348-56.414c6.25-8.387,12.77-17.27,19.473-26.59
			c0.367-0.508,1.07-0.621,1.574-0.254c0.016,0.008,0.016,0.027,0.027,0.039c0.473,0.367,0.582,1.035,0.231,1.535
			c-34.391,47.824-64.371,84.922-75.137,95.543l-0.789,0.328h-0.023l-0.797-0.355c-6.856-7.289-11.102-12.988-15.594-19.016
			c-2.141-2.875-4.336-5.809-6.844-8.949c-2.32-2.906-4.93-6-8.055-9.418l7.195,8.414c-9.977,9.359-22.449,19.496-36.18,27.398
			c-23.469,19.606-46.328,16.867-64.633,7.523c-23.531-12.016-39.527-34.859-39.527-34.859l-11.5-15.898l-0.641,19.539
			l-4.266,131.574c-0.02,0.609-0.516,1.09-1.125,1.09h-0.035c-0.25-0.008-0.445-0.144-0.629-0.285
			c-1.809,55.285-4.598,110.469-8.914,152.836c0,0,5.563,1.004,15.219,2.504c27.211,4.223,87.113,12.383,148.219,13.18
			c54.41,0.707,109.746-4.434,143.734-23.398c4.016-2.238,7.742-4.66,11.121-7.297L788.168,501.867z M662.844,352.777
			c-17.488,16.375-37.699,37.832-57.242,58.582c-12.363,13.129-24.047,25.523-34.563,36.148l-0.805,0.336l-0.793-0.324l-0.008-1.594
			c8.996-9.086,18.887-19.523,29.293-30.563c0.742-0.793,1.488-1.582,2.242-2.379c1-1.063,1.977-2.098,2.988-3.172
			c19.57-20.773,39.809-42.254,57.348-58.684c0.41-0.375,1-0.348,1.422-0.02c0.055,0.039,0.129,0.023,0.172,0.074
			C663.32,351.637,663.297,352.348,662.844,352.777z"/>
	</g>
	<path style="fill:#21263D;" d="M569.434,445.926l0.008,1.594l0.793,0.324l0.805-0.336c10.516-10.625,22.199-23.02,34.563-36.148
		c19.543-20.75,39.754-42.207,57.242-58.582c0.453-0.43,0.477-1.141,0.055-1.594c-0.043-0.051-0.117-0.035-0.172-0.074
		c-0.422-0.328-1.012-0.355-1.422,0.02c-17.539,16.43-37.777,37.91-57.348,58.684c-1.012,1.074-1.988,2.109-2.988,3.172
		c-0.754,0.797-1.5,1.586-2.242,2.379C588.32,426.402,578.43,436.84,569.434,445.926z"/>
	<path style="fill:#21263D;" d="M740.172,466.984c-6.703,9.32-13.223,18.203-19.473,26.59
		c-17.961,24.086-33.598,43.789-44.348,56.414c-4.207,4.934-7.699,8.844-10.246,11.438c-6.305-6.793-10.355-12.227-14.637-17.973
		c-4.629-6.215-9.422-12.652-17.356-21.035c-0.43-0.449-1.144-0.469-1.598-0.047c-0.348,0.332-0.355,0.805-0.18,1.219
		c0.047,0.129,0.039,0.273,0.141,0.375c0.805,0.848,1.551,1.664,2.289,2.473c3.125,3.418,5.734,6.512,8.055,9.418
		c2.508,3.141,4.703,6.074,6.844,8.949c4.492,6.027,8.738,11.727,15.594,19.016l0.797,0.355h0.023l0.789-0.328
		c10.766-10.621,40.746-47.719,75.137-95.543c0.352-0.5,0.242-1.168-0.231-1.535c-0.012-0.012-0.012-0.031-0.027-0.039
		C741.242,466.363,740.539,466.477,740.172,466.984z"/>
	<path style="fill:#21263D;" d="M319.477,351.715c0.887,0.043,1.742,0.082,2.551,0.133c4.598,0.281,7.711,0.434,11.23,0.434
		c3.379,0,7.141-0.145,12.945-0.449c0.625-0.035,1.102-0.563,1.074-1.184c-0.039-0.621-0.598-1.137-1.191-1.066
		c-11.754,0.617-15.023,0.559-23.926,0.02c-0.813-0.055-1.684-0.094-2.586-0.137c-5.551-0.254-12.453-0.578-16.352-3.723
		c-0.438-0.355-1.039-0.277-1.438,0.082c-0.043,0.043-0.113,0.035-0.152,0.082c-0.227,0.281-0.25,0.625-0.172,0.949
		c0.055,0.238,0.141,0.473,0.344,0.637C306.273,351.105,313.59,351.445,319.477,351.715z"/>
	<path style="fill:#21263D;" d="M326.066,362.871l1.055,0.102c5.813,0.551,11.395,1.082,16.582,1.082
		c2.285,0,4.488-0.102,6.602-0.352c0.617-0.07,1.063-0.633,0.984-1.25c-0.07-0.613-0.629-1.086-1.25-0.984
		c-6.676,0.773-14.465,0.043-22.711-0.742l-1.047-0.098c-8.813-0.836-13.523-1.875-18.98-3.074
		c-1.535-0.336-3.129-0.688-4.902-1.051c-0.516-0.113-0.965,0.203-1.18,0.664c-0.039,0.082-0.125,0.125-0.145,0.219
		c-0.133,0.602,0.262,1.203,0.871,1.324c0.508,0.105,0.926,0.199,1.41,0.301c1.188,0.254,2.375,0.512,3.461,0.746
		C312.344,360.973,317.117,362.023,326.066,362.871z"/>
	<path style="fill:#21263D;" d="M344.586,375.406h0.082c0.586,0,1.082-0.445,1.125-1.043c0.047-0.621-0.422-1.16-1.039-1.207
		c-19.863-1.457-22.031-1.715-33.082-3.867c-0.484-0.109-0.887,0.18-1.121,0.582c-0.063,0.109-0.176,0.176-0.199,0.305
		c-0.113,0.613,0.277,1.203,0.891,1.32c1.262,0.246,2.398,0.465,3.473,0.668C323.086,373.734,327.051,374.117,344.586,375.406z"/>
	<g>
		<path style="fill:#364E69;" d="M655.785,162.047c-5.375-18.449-26.496-25.113-43.738-22.949c-0.602-1.563-1.52-3.051-2.848-4.414
			c-6.777-6.953-7.922,0.293-15.269-1.258c-5.141-1.086-6.555-6.445-9.863-9.52c-3.738-3.484-7.313,0.567-9.984,2.742
			c-6.609,5.375-12.336,9.184-20.117,3.149c-4.269-3.313-10.199-13.031-16.355-12.219c-6.715,0.891-8.246,10.262-8.246,15.789
			c-0.004,4.527,3.152,14.836,0.195,18.82c-3.527,4.762-11.984,0.25-16.578,4.66c-11.984,11.5,18.059,52.281,24.695,62.828
			c-0.023-0.176-0.055-0.352-0.082-0.527c-0.523-3.621-1.16-7.176-1.711-10.617c-1.023-6.414-1.664-12.402-0.477-17.605
			c1.359-5.938,5.09-10.859,13.484-14.188c8.856-3.508,18.602-3.199,27.648-6.738c3.695-1.441,7.242-2.117,10.836-2.746
			c1.301,3.652,4.477,6.91,8.781,9.691c5.734,3.691,11.938,2.602,14.148,7.586c2.938,6.625-0.66,10.152,0.57,18.277
			c3.336,22.184,8.168,20.055,7.961,21.75c0.004-0.047,0.012-0.09,0.023-0.137c-2.359-10.652,2.25-21.207,11.375-24.625
			c10.141-3.805,21.934,2.66,26.348,14.434c4.406,11.773-0.23,24.402-10.375,28.203c-2.574,0.961-5.246,1.254-7.883,0.98
			c2.012,6.715,8.125,11.152,10.168,17.332c0.039,0.117,0.105,0.223,0.141,0.34c4.516-7.715,7.859-18.73,9.887-31.094
			C662.117,208.051,661.547,181.836,655.785,162.047z"/>
		<path style="fill:#364E69;" d="M598.148,197.734c-1.754-1.063-4.352-0.766-6.289-0.664c-4.93,0.25-12.363,0.633-16.414,3.492
			c-4.199,2.953-0.652,5.598,3.137,5.199c3.594-0.371,7.027-1.078,10.738-1.219c3.531-0.137,7.941-0.203,11.035-2.449
			C601.699,201.117,598.855,198.152,598.148,197.734z"/>
		<path style="fill:#364E69;" d="M560.547,203.145c-1.832-0.75-4.105-0.063-5.828,0.336c-4.398,1.004-11.012,2.531-14.012,5.91
			c-3.105,3.496,0.711,5.477,4.035,4.512c3.156-0.914,6.09-2.129,9.41-2.844c3.164-0.68,7.121-1.422,9.398-4.07
			C564.535,205.855,561.277,203.438,560.547,203.145z"/>
	</g>
	<path style="fill:#21263D;" d="M635.359,866.418c-0.621,0-1.125,0.504-1.125,1.125v43.293l-9.465-0.93v-58.703
		c0-0.625-0.508-1.125-1.125-1.125c-0.625,0-1.125,0.5-1.125,1.125v59.727c0,0.574,0.438,1.066,1.012,1.121l10.769,1.059
		l-0.066-0.953c-0.043-0.621,0.43-1.16,1.055-1.195c0.602-0.047,1.152,0.422,1.191,1.047l0.008,0.07v-18.766v-25.769
		C636.488,866.922,635.984,866.418,635.359,866.418z"/>
	<path style="fill:#21263D;" d="M642.703,1005.453l-6.215-93.375l-0.008-0.07c-0.039-0.625-0.59-1.094-1.191-1.047
		c-0.625,0.035-1.098,0.574-1.055,1.195l0.066,0.953l0.523,7.902l0.609,9.16l5.019,75.426c0.039,0.602,0.535,1.055,1.125,1.055
		h0.066h0.008C642.269,1006.606,642.742,1006.07,642.703,1005.453z"/>
	<path style="fill:#21263D;" d="M1840.469,424.168c-11.383,5.063-27.594,12.945-40.621,19.281
		c-6.563,3.191-12.41,6.039-16.586,8.012c-8.652,4.082-19.926,9.879-29.863,14.992c-4.207,2.16-8.215,4.223-11.777,6.023
		c-8.516,4.324-16.082,8.941-22.871,13.73c-0.031,0.156-0.063,0.301-0.094,0.461l1.426,1.363
		c6.695-4.727,14.156-9.281,22.559-13.539c3.566-1.805,7.578-3.871,11.785-6.035c9.922-5.105,21.18-10.891,29.801-14.961
		c4.176-1.973,10.039-4.816,16.609-8.02c13.008-6.328,29.199-14.207,40.555-19.25c0.566-0.246,0.824-0.914,0.566-1.484
		c0-0.004-0.004-0.004-0.012-0.008C1841.699,424.172,1841.035,423.922,1840.469,424.168z"/>
	<path style="fill:#554A89;" d="M1637.871,911.809c-3.566-83.16-8.531-161.383-15.434-211.855
		c-5.781-42.219-33.773-72.418-33.773-72.418c-1.559,0.273-3.125,0.516-4.684,0.769c0.109,0.598-0.258,1.18-0.855,1.309
		c-26.234,5.602-48.48,7.105-73.953,7.105c-12.922,0-26.676-0.383-42.203-0.82c-7.445-0.215-15.297-0.434-23.664-0.629
		c-0.617-0.016-1.117-0.527-1.102-1.156c0-0.016,0.02-0.027,0.02-0.043c-37.227-2.316-62.047-6.535-62.047-6.535
		c-4.563,12.519-8.465,23.98-11.789,34.246c8.188-0.512,16.313-0.773,23.426-0.949c17.664-0.441,72.848,6.063,66.164,26.602
		c-11.227-0.781-25.23-8.234-36.996-8.625c28.051,6.977,42.344,16,39.211,30.008c-1.445,5.305-19.875-10.356-26.938-14.086
		c-8.477-4.461-25.668-7.707-32.672-6.609c15.465-0.688,47.949,12.887,47.551,28.68c-3.684,7.266-15.758-6.496-24.016-10.078
		c-5.234-2.285-13.242-5.207-24.605-4.711c18.512,2.402,34.277,8.219,33.266,21.672c-7.621,2.547-18.289-8.816-32.621-8.527
		c-14.031,0.273-25.609,5.231-39.621,6.164c-2.652,0.176-5.398,0.394-8.215,0.527c-2.594,21.473-10.129,91.438-12.344,196.371
		c-0.617,29.43-0.82,61.602-0.375,96.219h147.125l5.285-92.367l1.586-27.789c-0.148-0.188-0.277-0.406-0.277-0.668V811.5
		c0-0.621,0.508-1.125,1.125-1.125h17.281v-90.356c0-0.625,0.508-1.133,1.133-1.133c0.617,0,1.125,0.508,1.125,1.133V811.5
		c0,0.625-0.508,1.133-1.125,1.133h-17.285v80.98c0,0.625-0.504,1.125-1.129,1.125c-0.227,0-0.406-0.125-0.586-0.242l2.438,27.523
		l8.207,92.418h137.066C1640.547,980.434,1639.324,945.715,1637.871,911.809z M1491.113,801c0,0.625-0.504,1.133-1.125,1.133
		c-0.629,0-1.129-0.508-1.129-1.133v-80.981c0-0.625,0.5-1.133,1.129-1.133c0.621,0,1.125,0.508,1.125,1.133V801z M1583.09,648.481
		c-38.793,6.973-73.801,9.301-103.215,9.301c-58.461,0-94.887-9.18-95.43-9.32c-0.605-0.156-0.965-0.769-0.809-1.371
		c0.156-0.602,0.77-0.965,1.375-0.809c0.809,0.211,82.316,20.723,197.672-0.019c0.625-0.106,1.203,0.301,1.313,0.91
		C1584.109,647.785,1583.703,648.371,1583.09,648.481z"/>
	<path style="fill:#E6817A;" d="M1479.793,262.859l0.887,2.906c15.559,15.746,34.375,22.504,43.969,22.504v-18.227
		C1508.57,276.559,1493.43,271.172,1479.793,262.859z"/>
	<path style="fill:#21263D;" d="M1489.359,208.793c0,2.758,1.508,5,3.367,5c1.863,0,3.367-2.242,3.367-5
		c0-2.477-1.227-4.434-2.816-4.84c-0.777,0.137-1.563,0.375-2.32,0.688C1490.02,205.527,1489.359,207.016,1489.359,208.793z"/>
	<path style="fill:#21263D;" d="M1527.914,206.379c1.852,0,3.367-2.234,3.367-5c0-2.441-1.211-4.383-2.758-4.824
		c-0.926,0.195-1.98,0.773-3.266,1.887c-0.418,0.832-0.711,1.816-0.711,2.938C1524.547,204.145,1526.059,206.379,1527.914,206.379z"
		/>
	<path style="fill:#FFFFFF;" d="M1451.172,241.734c-2.57,0-4.648,2.078-4.648,4.645c0,1.852,1.098,3.418,2.656,4.168
		c0.609,0.293,1.273,0.488,1.992,0.488c1.398,0,2.613-0.648,3.465-1.625c0.719-0.816,1.184-1.859,1.184-3.031
		C1455.82,243.813,1453.746,241.734,1451.172,241.734z"/>
	<path style="fill:#21263D;" d="M1438.234,220.91c2.141-4.043,6.934-7.227,13.918-4.004c0.559,0.262,1.238,0.02,1.496-0.551
		c0.258-0.563,0.008-1.234-0.551-1.496c-8.43-3.883-14.348,0.266-16.852,4.992c-3.359,6.336-2.141,15.719,5.711,20.445l0.574,0.16
		l0.969-0.543c0.316-0.535,0.152-1.227-0.379-1.543C1436.414,234.328,1435.367,226.316,1438.234,220.91z"/>
	<path style="fill:#21263D;" d="M1451.191,228.613c0.207-0.254,0.383-0.602,0.563-0.949c-1.813-2.973-5.305-5.313-8.523-4.266
		c-0.59,0.195-0.91,0.832-0.715,1.422c0.195,0.594,0.828,0.914,1.418,0.723c2.262-0.75,5.137,1.516,6.293,4.008l0.02,0.016
		C1450.629,229.234,1450.953,228.906,1451.191,228.613z"/>
	<path style="fill:#21263D;" d="M1452.945,230.023c1.492-1.852,2.563-5.563,1.715-7.926c-0.211-0.586-0.852-0.887-1.441-0.684
		c-0.582,0.211-0.891,0.859-0.676,1.445c0.438,1.23-0.035,3.332-0.789,4.805c-0.18,0.348-0.355,0.695-0.563,0.949
		c-0.238,0.293-0.563,0.621-0.945,0.953c-1.129,0.965-2.766,1.926-4.219,1.926c-0.621,0-1.129,0.5-1.129,1.125
		c0,0.617,0.508,1.125,1.129,1.125C1448.887,233.742,1451.793,231.461,1452.945,230.023z"/>
	<path style="fill:#21263D;" d="M1497.711,204.289c0.57,0.25,1.238-0.004,1.484-0.574c0.262-0.57,0-1.23-0.563-1.484
		c-3.961-1.766-10.969-0.121-13.727,4.551c-0.313,0.535-0.129,1.227,0.402,1.543l0.574,0.156l0.969-0.555
		c0.883-1.492,2.41-2.59,4.105-3.285c0.758-0.313,1.543-0.551,2.32-0.688C1494.914,203.668,1496.52,203.758,1497.711,204.289z"/>
	<path style="fill:#21263D;" d="M1532.176,197.195l0.594,0.23c0.582,0.223,1.234-0.063,1.453-0.648
		c0.223-0.586-0.07-1.238-0.652-1.457l-0.57-0.219c-3.422-1.359-6.25-1.879-11.395,3.766c-0.422,0.465-0.387,1.176,0.078,1.594
		l0.754,0.293l0.832-0.367c0.734-0.809,1.383-1.418,1.988-1.945c1.285-1.113,2.34-1.691,3.266-1.887
		C1529.828,196.281,1530.918,196.703,1532.176,197.195z"/>
	<path style="fill:#21263D;" d="M1522.203,323.434c-3.441,13.758-12.594,21.629-27.215,23.395
		c-9.539,1.145-29.477-1.066-36.703-17.695c-0.223-0.516-0.789-0.719-1.313-0.586c-0.059,0.012-0.117-0.023-0.172,0
		c-0.57,0.25-0.832,0.91-0.586,1.48c6.695,15.398,23.363,19.305,34.316,19.305c1.738,0,3.34-0.098,4.723-0.27
		c15.645-1.891,25.449-10.328,29.137-25.086c0.145-0.598-0.215-1.203-0.813-1.359c0,0-0.008-0.008-0.012-0.008
		C1522.953,322.461,1522.355,322.828,1522.203,323.434z"/>
	<g>
		<path style="fill:#8C4D33;" d="M1574.836,225.57c-1.008-8.098-2.074-16.188-3.297-24.258
			c-4.551-30.109-20.52-54.461-43.563-68.074c-5.305-4.434-11.988-7.008-19.008-8.32c-11.227-3.285-23.543-4.387-36.641-2.883
			c-4.789,0.551-9.293,1.473-13.332,2.762c-35.16,11.266-62.578,49.934-70.391,84.754c-1.477,6.594-2.434,13.328-3.051,20.148
			c-2.902,32.371,2.758,66.934,6.297,100.203l63.469-15.016v-34.145c0.57,1.055,0.805,1.859,0.5,2.242
			c6.125-14.016,9.59-23.039,9.805-29.82c0.098-3.063-0.402-5.715-1.727-8.09c-0.34-0.613-0.637-1.188-0.934-1.77
			c-2.254,2.809-5.105,4.898-8.328,6.105c-0.852,0.977-2.066,1.625-3.465,1.625c-0.719,0-1.383-0.195-1.992-0.488
			c-0.184,0.004-0.355,0.063-0.539,0.063c-10.832,0-19.605-10.191-19.605-22.766c0-12.57,8.773-22.758,19.605-22.758
			c9.754,0,17.777,8.273,19.293,19.086c0.02,0.035,0.039,0.066,0.059,0.098c3.926-7.398,4.785-22.891,4.141-39.574
			c-3.879-17.492,23.961-25.75,23.961-25.75c25.262-8.898,36.008,1.941,40.086,8.789c5.613,14.066,7.895,32.797,9.094,52.66
			c0.984,16.406-1.16,41.098-19.391,49.184c-0.414,0.18-0.82,0.297-1.234,0.465v18.227v26.617l59.855,20.984
			C1582.035,298.727,1579.387,262.012,1574.836,225.57z"/>
		<path style="fill:#8C4D33;" d="M1489.215,189.309c-3.758,1.594-11.52,5.984-8.945,10.27c2.82,0.395,6.281-1.668,8.809-2.855
			c2.895-1.359,4.844-2.16,8.18-2.336c2.121-0.113,7.117-0.133,6.301-3.602C1502.477,186.141,1492.078,188.102,1489.215,189.309z"/>
		<path style="fill:#8C4D33;" d="M1539.164,182.941c-0.434-3.395-7.738-2.684-9.828-2.426c-4.352,0.551-16.059,2.715-13.668,9.34
			c2.402,2.895,5.648-0.938,11.586-2.723C1529.891,186.344,1539.547,185.973,1539.164,182.941z"/>
	</g>
	<path style="fill:#FFFFFF;" d="M1508.82,233.203c7.609,9.113,12.402,11.082,15.113,11.082c6.656,0,8.777-12.156,9.168-18.469
		L1508.82,233.203z"/>
	<path style="fill:#21263D;" d="M1533.969,223.195l-27.418,8.34l-0.746,0.746l0.195,1.043c7.16,8.891,13.031,13.211,17.934,13.211
		c10.934,0,11.469-21.332,11.488-22.238l-0.445-0.922L1533.969,223.195z M1523.934,244.285c-2.711,0-7.504-1.969-15.113-11.082
		l24.281-7.387C1532.711,232.129,1530.59,244.285,1523.934,244.285z"/>
	<path style="fill:#21263D;" d="M1522.277,212.898c0.75,0.508,1.496,1.016,2.207,1.527c-1.387,2.129-3.152,3.945-7.801,5.68
		c-0.586,0.219-0.883,0.867-0.664,1.453c0.168,0.453,0.602,0.73,1.059,0.73l0.395-0.07c5.367-2,7.543-4.266,9.48-7.508
		c0.293-0.492,0.172-1.125-0.281-1.469c-0.984-0.75-2.047-1.477-3.125-2.207c-4.441-3.027-9.035-6.148-9.152-12.02
		c-0.02-0.621-0.625-1.113-1.152-1.105c-0.621,0.012-1.121,0.527-1.105,1.148C1512.277,206.09,1517.594,209.707,1522.277,212.898z"
		/>
	<path style="fill:#21263D;" d="M1958.324,336.469c-1.117,4.883-6.352,9.395-10.563,13.023c-0.68,0.59-1.34,1.16-1.957,1.707
		c-6.684,5.938-9.223,8.012-18.824,14.758c-0.512,0.355-0.637,1.059-0.277,1.566l0.918,0.484l0.648-0.207
		c9.707-6.809,12.273-8.91,19.031-14.918c0.609-0.539,1.262-1.102,1.938-1.684c4.453-3.844,10-8.625,11.281-14.227
		c0.059-0.254-0.02-0.492-0.117-0.711c-0.148-0.305-0.375-0.559-0.73-0.641c-0.059-0.016-0.109,0.031-0.168,0.027
		C1958.961,335.613,1958.449,335.926,1958.324,336.469z"/>
	<path style="fill:#21263D;" d="M1965.613,344.43c-1.164,1.375-2.199,2.637-3.195,3.852c-3.551,4.309-6.625,8.039-13.043,14.137
		l-0.727,0.691c-6.016,5.719-11.691,11.129-17.441,14.637c-0.523,0.324-0.695,1.023-0.375,1.551l0.965,0.539l0.586-0.164
		c5.949-3.637,11.715-9.121,17.82-14.93l0.727-0.691c6.52-6.191,9.629-9.969,13.223-14.344c0.707-0.852,1.488-1.785,2.262-2.715
		c0.316-0.375,0.586-0.711,0.922-1.105c0.398-0.477,0.336-1.188-0.137-1.586c-0.07-0.059-0.164-0.039-0.246-0.078
		C1966.508,344,1965.957,344.027,1965.613,344.43z"/>
	<path style="fill:#21263D;" d="M1966.207,360.207c-7.363,8.535-8.906,10.07-23.621,23.469c-0.465,0.418-0.5,1.133-0.074,1.594
		l0.832,0.363l0.754-0.293c13.012-11.832,15.879-14.574,21.516-21c0.719-0.82,1.473-1.691,2.309-2.656
		c0.402-0.473,0.352-1.184-0.113-1.59c-0.098-0.086-0.234-0.07-0.352-0.117C1967.027,359.809,1966.535,359.832,1966.207,360.207z"/>
	<path style="fill:#21263D;" d="M1899.324,370.414c0.273,2.996,1.242,5.781,2.18,8.477c0.906,2.602,1.758,5.063,1.953,7.539
		c0.402,5.34-3.902,12.461-5.32,14.801c-0.32,0.531-0.152,1.227,0.379,1.547l0.586,0.16l0.965-0.539
		c1.508-2.496,6.098-10.082,5.637-16.145c-0.219-2.77-1.16-5.477-2.07-8.098c-0.82-2.355-1.605-4.789-1.93-7.273
		c-0.035-0.227-0.117-0.449-0.137-0.68c-0.059-0.617-0.625-1.051-1.223-1.016c-0.012,0-0.016,0.012-0.023,0.012
		C1899.715,369.273,1899.266,369.805,1899.324,370.414z"/>
	<path style="fill:#21263D;" d="M1334.141,634.984c-7.391-12.813-14.277-23.637-20.949-34.109c-0.262-0.414-0.52-0.82-0.785-1.234
		c-6.98-10.965-13.699-21.598-20.32-33.535c-0.039-0.07-0.078-0.137-0.117-0.207c-0.637,0.406-1.281,0.789-1.918,1.184
		c6.922,12.492,13.934,23.531,21.242,35.008c6.648,10.449,13.527,21.258,20.898,34.02l0.98,0.563l0.547-0.148l0.012-0.004
		C1334.273,636.215,1334.453,635.523,1334.141,634.984z"/>
	<path style="fill:#00728B;" d="M1639.117,370.957c-12.988-21.012-36.109-28.598-36.109-28.598l-18.504-6.488l-59.855-20.984
		c0,0,0.059,3.25-1.07,7.73c0.598,0.156,0.957,0.762,0.813,1.359c-3.688,14.758-13.492,23.195-29.137,25.086
		c-1.383,0.172-2.984,0.27-4.723,0.27c-10.953,0-27.621-3.906-34.316-19.305c-0.246-0.57,0.016-1.23,0.586-1.48
		c0.055-0.023,0.113,0.012,0.172,0c-1.203-3.809-1.891-8.258-1.652-13.66l-63.469,15.016l-14.559,3.445
		c-0.871,0.184-1.664,0.422-2.52,0.621c-41.418,4.902-80.879,39.141-111.563,62.316c-19.363,14.613-39.938,32.59-59.32,46.965
		c2.859,9.293,6.242,18.488,10.023,27.535c1.359,3.258,2.758,6.496,4.234,9.703c8.629,18.727,19.219,36.566,31.754,52.629
		c10.52,13.477,22.84,26.16,36.879,35.988c1.09-0.637,2.18-1.348,3.27-2.024c0.637-0.394,1.281-0.777,1.918-1.184
		c2.594-1.648,5.184-3.355,7.766-5.129c12.449-8.547,25.785-17.473,39.02-26.992c-8.555-19.441-16.715-38.098-24.594-57.578
		c-0.234-0.574,0.051-1.23,0.625-1.465c0.57-0.23,1.238,0.043,1.473,0.625c7.797,19.293,15.883,37.805,24.367,57.07
		c0.887,2.008,1.754,3.988,2.648,6.016c6.395,14.535,13.02,29.555,20.301,46.578c0.246,0.574-0.02,1.231-0.594,1.481l-0.168,0.035
		l17.363,40.996c0,0,24.82,4.219,62.047,6.535c0.043-0.594,0.582-1.039,1.137-1.055c8.371,0.195,16.223,0.418,23.676,0.625
		c45.965,1.305,76.348,2.16,115.617-6.234c0.613-0.125,1.203,0.262,1.332,0.867c0,0.012-0.008,0.02-0.004,0.031
		c1.559-0.254,3.125-0.496,4.684-0.769l8.02-29.477c-0.582-0.16-0.941-0.73-0.809-1.32c1.723-7.449,3.91-15.48,6.035-23.254
		c4.441-16.309,9.047-33.172,9.676-45.922c1.027-20.996-0.754-41.992-2.48-62.301c-0.305-3.609-0.609-7.211-0.902-10.801
		c-0.047-0.617,0.414-1.164,1.039-1.211c0.598-0.035,1.16,0.406,1.207,1.031c0.289,3.59,0.602,7.188,0.902,10.785
		c1.73,20.387,3.523,41.457,2.48,62.605c-0.211,4.273-0.883,9.004-1.809,13.98c-1.004,5.398-2.328,11.094-3.813,16.922
		l38.535,44.543c7.168-5.504,13.613-11.332,19.477-17.336c34.969-35.797,47.934-78.133,52.434-99.113
		c0.031-0.16,0.063-0.305,0.094-0.461c1.684-7.918,2.141-12.68,2.141-12.68L1639.117,370.957z"/>
	<path style="fill:#21263D;" d="M1316.258,475.359c-0.234-0.582-0.902-0.855-1.473-0.625c-0.574,0.234-0.859,0.891-0.625,1.465
		c7.879,19.48,16.039,38.137,24.594,57.578c0.824,1.863,1.629,3.699,2.457,5.578c6.398,14.523,13.02,29.547,20.293,46.555
		l1.031,0.68l0.277-0.051l0.168-0.035c0.574-0.25,0.84-0.906,0.594-1.481c-7.281-17.023-13.906-32.043-20.301-46.578
		c-0.895-2.027-1.762-4.008-2.648-6.016C1332.141,513.164,1324.055,494.652,1316.258,475.359z"/>
	<path style="fill:#21263D;" d="M1582.652,627.406c-39.27,8.395-69.652,7.539-115.617,6.234c-7.453-0.207-15.305-0.43-23.676-0.625
		c-0.555,0.016-1.094,0.461-1.137,1.055c0,0.016-0.02,0.027-0.02,0.043c-0.016,0.629,0.484,1.141,1.102,1.156
		c8.367,0.195,16.219,0.414,23.664,0.629c15.527,0.438,29.281,0.82,42.203,0.82c25.473,0,47.719-1.504,73.953-7.105
		c0.598-0.129,0.965-0.711,0.855-1.309c-0.004-0.012,0.004-0.019,0.004-0.031C1583.855,627.668,1583.266,627.281,1582.652,627.406z"
		/>
	<path style="fill:#21263D;" d="M1613.832,527.672c1.043-21.148-0.75-42.219-2.48-62.605c-0.301-3.598-0.613-7.195-0.902-10.785
		c-0.047-0.625-0.609-1.066-1.207-1.031c-0.625,0.047-1.086,0.594-1.039,1.211c0.293,3.59,0.598,7.191,0.902,10.801
		c1.727,20.309,3.508,41.305,2.48,62.301c-0.629,12.75-5.234,29.613-9.676,45.922c-2.125,7.773-4.313,15.805-6.035,23.254
		c-0.133,0.59,0.227,1.16,0.809,1.32c0.012,0.008,0.02,0.027,0.039,0.031l0.246,0.027c0.516,0,0.98-0.348,1.102-0.871
		c1.711-7.406,3.902-15.418,6.008-23.164c1.406-5.168,2.816-10.375,4.133-15.508c1.484-5.828,2.809-11.523,3.813-16.922
		C1612.949,536.676,1613.621,531.945,1613.832,527.672z"/>
	<path style="fill:#21263D;" d="M1493.859,894.496c0.18,0.117,0.359,0.242,0.586,0.242c0.625,0,1.129-0.5,1.129-1.125v-80.98h17.285
		c0.617,0,1.125-0.508,1.125-1.133v-91.481c0-0.625-0.508-1.133-1.125-1.133c-0.625,0-1.133,0.508-1.133,1.133v90.356h-17.281
		c-0.617,0-1.125,0.504-1.125,1.125v82.113c0,0.262,0.129,0.48,0.277,0.668C1493.672,894.375,1493.754,894.43,1493.859,894.496z"/>
	<path style="fill:#21263D;" d="M1491.113,801v-80.981c0-0.625-0.504-1.133-1.125-1.133c-0.629,0-1.129,0.508-1.129,1.133V801
		c0,0.625,0.5,1.133,1.129,1.133C1490.609,802.133,1491.113,801.625,1491.113,801z"/>
	<path style="fill:#21263D;" d="M1583.996,647.172c-0.109-0.609-0.688-1.016-1.313-0.91c-115.355,20.742-196.863,0.23-197.672,0.019
		c-0.605-0.156-1.219,0.207-1.375,0.809c-0.156,0.602,0.203,1.215,0.809,1.371c0.543,0.141,36.969,9.32,95.43,9.32
		c29.414,0,64.422-2.328,103.215-9.301C1583.703,648.371,1584.109,647.785,1583.996,647.172z"/>
	<path style="fill:#304155;" d="M1482.555,1870.348l-5.676-103.883l-73.375-0.391l-0.688,22.227c-0.023,0.609-0.52,1.09-1.125,1.09
		h-0.039c-0.621-0.023-1.109-0.539-1.09-1.164l0.453-14.711l-3.387,97.234c-44.355-0.441-74.211-5.309-94.309-11.484
		c-0.695,19.605-1.289,40.422-1.723,62.27c-0.523,26.059-0.824,53.555-0.797,82.262h147.211l3.012-64.199l4.109-87.691l6.398,88.102
		l4.629,63.789h138.68c-0.539-22.977-1.168-46.094-1.887-68.988c-0.969-30.785-2.121-61.148-3.473-90.211
		C1558.25,1871.332,1482.555,1870.348,1482.555,1870.348z"/>
	<path style="fill:#E6817A;" d="M1443.879,1263.578c12.785-1.801,25.52-5.379,32.508-12.441l0.023-12.438
		c-4.508-3.875-9.105-10.285-11.535-16.934C1465.848,1239.18,1456.461,1253.816,1443.879,1263.578z"/>
	<path style="fill:#21263D;" d="M1471.207,1179.949c6.398-4.277,11.621-1.891,14.367,1.77c3.68,4.891,3.914,12.969-2.07,18.012
		c-0.48,0.398-0.535,1.113-0.141,1.59l0.867,0.398l0.723-0.27c7.008-5.902,6.73-15.355,2.43-21.086
		c-3.223-4.277-9.715-7.438-17.426-2.285c-0.52,0.348-0.66,1.043-0.309,1.566
		C1469.988,1180.156,1470.691,1180.297,1471.207,1179.949z"/>
	<path style="fill:#21263D;" d="M1481.035,1184.965c-3.34-0.508-6.418,2.328-7.742,5.555c0.227,0.309,0.457,0.625,0.695,0.84
		c0.277,0.254,0.66,0.531,1.086,0.797c0-0.012,0.012-0.012,0.016-0.02c0.754-2.641,3.25-5.336,5.582-4.945
		c0.629,0.098,1.199-0.324,1.293-0.938C1482.066,1185.641,1481.645,1185.063,1481.035,1184.965z"/>
	<path style="fill:#21263D;" d="M1473.293,1190.52c-0.977-1.336-1.773-3.344-1.539-4.629c0.117-0.609-0.285-1.199-0.895-1.316
		c-0.602-0.105-1.203,0.289-1.313,0.902c-0.469,2.461,1.168,5.957,2.926,7.555c1.223,1.105,3.93,2.656,6.504,2.656l0.918-0.07
		c0.617-0.094,1.039-0.676,0.934-1.289c-0.098-0.613-0.668-1.027-1.289-0.938c-1.43,0.234-3.195-0.457-4.465-1.234
		c-0.426-0.266-0.809-0.543-1.086-0.797C1473.75,1191.145,1473.52,1190.828,1473.293,1190.52z"/>
	<path style="fill:#21263D;" d="M1426.297,1169.281c-2.422-0.07-4.711,1.25-6.422,3.902c-0.34,0.527-0.184,1.223,0.336,1.559
		c0.523,0.34,1.219,0.191,1.555-0.336c1.258-1.938,2.785-2.977,4.41-2.875c1.883,0.102,3.711,1.738,5.148,4.605l1.004,0.621
		l0.5-0.121c0.563-0.277,0.785-0.953,0.504-1.508C1431.527,1171.504,1429.023,1169.434,1426.297,1169.281z"/>
	<path style="fill:#21263D;" d="M1385.109,1176.758l1.012-0.621c1.434-2.867,3.262-4.504,5.145-4.605
		c1.609-0.102,3.152,0.938,4.406,2.875c0.336,0.52,1.031,0.676,1.559,0.336c0.52-0.336,0.672-1.031,0.336-1.559
		c-1.711-2.652-3.992-3.977-6.422-3.902c-2.727,0.152-5.227,2.223-7.039,5.848c-0.285,0.555-0.051,1.23,0.5,1.508L1385.109,1176.758
		z"/>
	<g>
		<path style="fill:#7A3922;" d="M1506.895,1134.559c-7.77-25.309-31.742-25.152-31.742-25.152
			c4.855-27.934-9.23-30.664-9.23-30.664c-10.344-0.371-14.461,11.48-14.461,11.48c0-22.539-19.133-26.5-19.133-26.5
			c-12.176,0-21.34,8.262-21.34,8.262c-1.465-11.27-16.934-23.289-16.934-23.289c-23.664,9.766-15.898,42.07-15.898,42.07
			l-12.281-8.262c-8.387,17.734-0.824,30.305,11.324,38.598c-1.324,0.891-2.434,1.898-3.211,3.016
			c-4.102,5.934-4.762,13.813-3.926,20.914c0.121,1.035,0.273,2.047,0.453,3.043c1.434,7.867,4.738,15.184,7.066,22.891
			c0.18,0.598,0.383,1.406,0.621,2.332c-0.379-19.086,1.922-35.641,9.902-46.277c12.535,5.418,26.27,7.508,32.773,6.887
			c14.027-1.348,18.82-0.742,23.586,12.926c2.59,7.418,3.496,14.891,5.328,22.613c0.211,0.887,1.09,2.977,2.148,5.434
			c-0.258-0.012-0.477,0.145-0.586,0.75c-0.41,2.199-0.602,9.629-1.168,11.789c-0.973,3.801-2.297,8.059-5.184,10.906
			c-7.422,7.32-15.77,3.906-23.727-0.461c-7.172-3.941-16.785-5.469-24.656-3.301c-4.652,1.281-6.363,3.082-10.98,4.32
			c-2.441,0.656-4.445-1.145-6.105-3.758c-0.004-0.004-0.012-0.004-0.016-0.012c0.004,0.043,0.016,0.086,0.023,0.129
			c0.117,0.922,0.57,1.891,0.246,2.758c-7.844,21.234,2.629,72.566,21.898,77.691c1.715,0.453,3.543,0.723,5.441,0.848
			c11.266,0.762,25.313-4.082,36.75-12.961c12.582-9.762,21.969-24.398,20.996-41.813c2.43,6.648,7.027,13.059,11.535,16.934
			c0.016,0.012,0.031,0.02,0.043,0.031c0.512,0.441,1.02,0.844,1.527,1.215c12.773-23.531,29.234-66.93,31.313-90.547
			C1509.086,1143.629,1508.195,1138.781,1506.895,1134.559z M1415.348,1203.598c-2.547,2.707-5.859,3.801-9.23,3.801
			c-3.156,0-6.363-0.957-9.043-2.461c-0.547-0.305-0.742-0.992-0.43-1.531c0.297-0.547,0.984-0.738,1.531-0.433
			c4.777,2.68,11.438,3.433,15.527-0.918c0.434-0.453,1.141-0.473,1.598-0.047
			C1415.754,1202.434,1415.773,1203.145,1415.348,1203.598z M1479.969,1212.688c-5.852,0.93-11.523-1.32-15.832-5.512
			c-0.043,0.105-0.07,0.211-0.109,0.32c-0.582,1.578-0.836,3.273-0.867,5.023c-1.715-2.32-2.469-4.863-4.168-7.969
			c-2.75-5.039-2.688-8.875-2.086-12.875c-0.145-1.492-0.168-2.961-0.066-4.406c0.727-9.895,7.051-18.129,15.98-19.547
			c10.699-1.703,20.965,6.984,22.938,19.406C1497.73,1199.539,1490.656,1210.984,1479.969,1212.688z"/>
		<path style="fill:#7A3922;" d="M1430.023,1164.641c3.465,0.707,7.762,1.684,11.305,0.23c1.527-0.625-0.539-4.18-1.117-4.754
			c-1.461-1.449-4.059-1.769-5.965-2.137c-4.84-0.918-12.148-2.297-16.77-0.48c-4.773,1.879-1.953,5.285,1.824,5.797
			C1422.875,1163.785,1426.375,1163.906,1430.023,1164.641z"/>
		<path style="fill:#7A3922;" d="M1395.895,1163.98c3.215,0.293,7.223,0.754,10.184-1.086c1.277-0.801-1.113-4.07-1.727-4.57
			c-1.52-1.258-3.902-1.277-5.664-1.414c-4.496-0.344-11.266-0.856-15.137,1.476c-3.996,2.41-0.953,5.445,2.516,5.516
			C1389.355,1163.961,1392.516,1163.68,1395.895,1163.98z"/>
	</g>
	<path style="fill:#21263D;" d="M1399.656,1182.934c3.652-2.668,8.008-7.238,8.055-13.93c0.004-0.621-0.504-1.125-1.121-1.133
		h-0.012c-0.617,0-1.121,0.5-1.125,1.121c-0.035,5.75-3.891,9.766-7.129,12.113c-1.25,0.914-2.488,1.934-2.641,3.391
		c-0.133,1.348,0.734,2.481,1.398,3.215c1.555,1.715,2.121,2.152,7.383,5.098l0.547,0.141l0.984-0.574
		c0.305-0.543,0.109-1.23-0.43-1.535c-5.09-2.844-5.457-3.148-6.816-4.637c-0.574-0.637-0.859-1.148-0.824-1.476
		C1397.98,1184.215,1398.875,1183.496,1399.656,1182.934z"/>
	<path style="fill:#89D2F6;" d="M1464.176,1534.121l-6.609-92.863c-0.051-0.617,0.422-1.16,1.043-1.203
		c0.164-0.016,0.293,0.09,0.434,0.141l-0.855-15.684c-1.332-0.617-2.641-1.246-3.91-1.875l-42.293,36.043l-0.957,27.445
		c0.625,0.023,1.105,0.543,1.09,1.164l-8.613,278.785l73.375,0.391L1464.176,1534.121z"/>
	<path style="fill:#89D2F6;" d="M1454.621,1368.102c1.035-0.387,2.176-0.66,3.367-0.883l21.004-83.348l-2.539-0.832l-44.125,30.227
		l-25.199-30.227l-0.258,0.086l7.656,102.605l-0.523,14.918l9.281-4.223C1425.66,1383.676,1446.648,1371.125,1454.621,1368.102z"/>
	<g>
		<path style="fill:#B73E50;" d="M1406.871,1283.125l-78.094,27.383c0,0-50.387,3.996-71.727,46.859l-69.535,110.082l26.887,26.758
			c12.676-8.91,24.078-13.715,24.078-13.715l144.992-65.957l-30.129-66.649c-0.223-0.48-0.078-1.043,0.344-1.359l16.988-12.898
			l-5.785-24.262c-0.148-0.605,0.227-1.207,0.832-1.355c0.609-0.145,1.211,0.23,1.355,0.836l5.961,24.976l-0.414,1.16
			l-16.855,12.793l29.758,65.828l28.477-12.957l0.523-14.918L1406.871,1283.125L1406.871,1283.125z"/>
		<path style="fill:#B73E50;" d="M1262.234,1831.203c0,0,3.059,16.375,41.086,28.063c20.098,6.176,49.953,11.043,94.309,11.484
			l3.387-97.234l8.844-286.293c0.023-0.629,0.523-1.078,1.164-1.098c0.004,0,0.004,0,0.004,0l0.957-27.445l-128.672,109.656
			L1262.234,1831.203z"/>
		<path style="fill:#B73E50;" d="M1631.121,1367.406c-36.961-62.668-112.301-70.566-112.301-70.566
			c-0.02,0.02-0.031,0.051-0.059,0.074l-39.77-13.047v0.004l-21.004,83.348c6.934-1.285,16.336-0.332,25.336-3.125
			c2.754-0.855,4.391-0.969,5.59-0.652l7.629-1.574l1.469-3.199l-20.043-16.133c-0.395-0.317-0.523-0.863-0.32-1.328l10.648-24.234
			c0.254-0.57,0.914-0.828,1.492-0.586c0.566,0.254,0.828,0.918,0.574,1.488l-10.305,23.449l20.051,16.141
			c0.402,0.32,0.535,0.875,0.316,1.344l-1.145,2.488l8.504-1.754l26.867-5.551c0,0,5.211,9.07-25.695,18.918
			c-2.84,0.898-6.008,1.816-9.492,2.726l5.125,8.18c-0.391,7.195-0.371,12.242-0.336,16.082c0.375,0.012,0.734,0.137,0.941,0.484
			c0.32,0.535,0.141,1.227-0.391,1.543c-0.16,0.094-0.359,0.191-0.535,0.285c0.035,6.176-0.23,8.793-3.285,13.129
			c0.188,0.125,0.371,0.266,0.449,0.492c0.203,0.582-0.098,1.227-0.684,1.438c-0.496,0.18-1.066,0.352-1.609,0.52
			c-1.82,2.27-4.262,5.055-7.578,8.859c-7.082,8.117-21.277,3.5-33.375-2.137l0.855,15.684c0.402,0.141,0.734,0.445,0.77,0.902
			l11.98,168.277c0.043,0.621-0.43,1.164-1.047,1.207h-0.078c-0.586,0-1.082-0.453-1.121-1.047l-5.371-75.414l12.703,232.344
			l5.676,103.883c0,0,75.695,0.984,116.926-25.75c7.332-4.754,13.59-10.371,18.121-17.043l-33.43-302.496l13.148,19.25l10.875-6.414
			c-0.074-34.074,35.688-66.172,35.688-66.172l33.121-31.539L1631.121,1367.406z"/>
	</g>
	<path style="fill:#21263D;" d="M1500.426,1358.809c0.219-0.469,0.086-1.023-0.316-1.344l-20.051-16.141l10.305-23.449
		c0.254-0.57-0.008-1.234-0.574-1.488c-0.578-0.242-1.238,0.016-1.492,0.586l-10.648,24.234c-0.203,0.465-0.074,1.012,0.32,1.328
		l20.043,16.133l-1.469,3.199l2.738-0.57L1500.426,1358.809z"/>
	<path style="fill:#21263D;" d="M1372.625,1334.984l0.414-1.16l-5.961-24.976c-0.145-0.606-0.746-0.981-1.355-0.836
		c-0.605,0.149-0.98,0.75-0.832,1.355l5.785,24.262l-16.988,12.898c-0.422,0.316-0.566,0.879-0.344,1.359l30.129,66.649l2.055-0.93
		l-29.758-65.828L1372.625,1334.984z"/>
	<path style="fill:#21263D;" d="M1457.566,1441.258l6.609,92.863l5.371,75.414c0.039,0.594,0.535,1.047,1.121,1.047h0.078
		c0.617-0.043,1.09-0.586,1.047-1.207l-11.98-168.277c-0.035-0.457-0.367-0.762-0.77-0.902c-0.141-0.051-0.27-0.156-0.434-0.141
		C1457.988,1440.098,1457.516,1440.641,1457.566,1441.258z"/>
	<path style="fill:#21263D;" d="M1412.117,1487.289c0.016-0.621-0.465-1.141-1.09-1.164c0,0,0,0-0.004,0
		c-0.641,0.02-1.141,0.469-1.164,1.098l-8.844,286.293l-0.453,14.711c-0.02,0.625,0.469,1.141,1.09,1.164h0.039
		c0.605,0,1.102-0.48,1.125-1.09l0.688-22.227L1412.117,1487.289z"/>
	<path style="fill:#21263D;" d="M1406.117,1207.398c3.371,0,6.684-1.094,9.23-3.801c0.426-0.453,0.406-1.164-0.047-1.59
		c-0.457-0.426-1.164-0.406-1.598,0.047c-4.09,4.352-10.75,3.598-15.527,0.918c-0.547-0.305-1.234-0.113-1.531,0.433
		c-0.313,0.539-0.117,1.227,0.43,1.531C1399.754,1206.441,1402.961,1207.398,1406.117,1207.398z"/>
	<path style="fill:#21263D;" d="M1843.539,1306.016c0.109,0.535,0.574,0.91,1.102,0.91l0.223-0.023
		c6.184-1.223,12.582-2.488,19.066-10.75c0.379-0.484,0.297-1.191-0.195-1.578c-0.492-0.383-1.199-0.301-1.578,0.191
		c-5.977,7.594-11.688,8.73-17.73,9.93C1843.813,1304.813,1843.414,1305.406,1843.539,1306.016z"/>
	<path style="fill:#21263D;" d="M1848.504,1318.172c-0.602-0.168-1.23,0.16-1.406,0.758c-0.176,0.602,0.16,1.223,0.758,1.406
		c0.746,0.223,1.547,0.324,2.395,0.324c6.441,0,15.289-5.91,19.043-10.074c0.129-0.137,0.297-0.297,0.414-0.434
		c0.398-0.477,0.336-1.191-0.141-1.59c-0.301-0.258-0.684-0.258-1.043-0.145c-0.195,0.063-0.402,0.109-0.547,0.281
		C1864.016,1313.422,1853.488,1319.676,1848.504,1318.172z"/>
	<path style="fill:#21263D;" d="M1869.5,1324.223c-3.949,3.188-10.121,7.035-17.09,7.269c-0.617,0.023-1.105,0.543-1.086,1.164
		c0.027,0.609,0.527,1.09,1.133,1.09h0.039c6.824-0.234,12.848-3.582,17.063-6.734c0.465-0.348,0.93-0.699,1.352-1.039
		c0.492-0.391,0.566-1.098,0.172-1.586c-0.145-0.184-0.367-0.254-0.578-0.316C1870.16,1323.973,1869.801,1323.977,1869.5,1324.223z"
		/>
	<path style="fill:#21263D;" d="M1482.711,1388.477c-0.621-0.086-1.184,0.344-1.273,0.957c-0.086,0.621,0.344,1.191,0.957,1.273
		c2.297,0.32,4.629,0.648,7.086,0.648c4.234,0,8.863-0.961,14.453-4.547c0.52-0.336,0.672-1.039,0.34-1.559
		c-0.34-0.523-1.039-0.68-1.563-0.336C1494.582,1390.137,1488.816,1389.328,1482.711,1388.477z"/>
	<path style="fill:#21263D;" d="M1482.137,1402.551c-0.504-0.371-1.203-0.254-1.57,0.254c-0.367,0.5-0.25,1.207,0.254,1.574
		c1.836,1.324,4.492,1.852,7.414,1.852c5.68,0,12.352-1.996,16.035-4.02c0.176-0.094,0.375-0.191,0.535-0.285
		c0.531-0.316,0.711-1.008,0.391-1.543c-0.207-0.348-0.566-0.473-0.941-0.484c-0.203-0.004-0.418-0.023-0.609,0.09
		C1498.348,1403.148,1486.363,1405.594,1482.137,1402.551z"/>
	<path style="fill:#21263D;" d="M1499.992,1415.145c-4.781,1.719-11.871,3.336-18.523,1.27c-0.602-0.188-1.223,0.152-1.41,0.746
		c-0.184,0.59,0.152,1.223,0.746,1.41c2.457,0.758,4.961,1.066,7.395,1.066c4.027,0,7.813-0.844,10.941-1.848
		c0.543-0.168,1.113-0.34,1.609-0.52c0.586-0.211,0.887-0.855,0.684-1.438c-0.078-0.227-0.262-0.367-0.449-0.492
		C1500.691,1415.129,1500.352,1415.02,1499.992,1415.145z"/>
	<path style="fill:#A46C34;" d="M557.301,1279.281c-2.727,10.949-7.801,25.527,3.207,33.641c1.199,0.883,2.469,1.594,3.805,2.168
		l30.945-10.848v-26.617v-13.691c-0.445-0.117-0.879-0.188-1.328-0.32c-19.098-5.762-24.281-29.992-25.344-46.402
		c-1.277-19.844-1.34-38.699,2.477-53.352c-1.246,2.855-1.582,4.996-1.582,4.996c0.168-1.207-3.211-5.41-3.699-6.898
		c-0.926-2.867-1.067-5.813-0.859-8.805c0.453-6.445,2.707-13.367,5.836-18.996c3.613-6.512,9.461-10.938,16.144-13.953
		c-0.019,0.012-0.039,0.012-0.058,0.02c-22.512,7.613-32.242,41.707-34.344,64.988c-0.289,3.313-0.438,6.406-0.441,9.18
		C552.019,1222.594,564.098,1251.922,557.301,1279.281z"/>
	<path style="fill:#38355C;" d="M779.578,1893.008c-2.563-96.852-9.523-161.352-11.996-181.805
		c-2.809-0.133-5.563-0.355-8.207-0.527c-14.016-0.926-25.598-5.887-39.625-6.164c-14.332-0.289-25,11.074-32.625,8.531
		c-1.008-13.457,14.766-19.273,33.273-21.672c-11.371-0.504-19.371,2.422-24.613,4.707c-8.254,3.586-20.332,17.348-24.016,10.086
		c-0.394-15.797,32.094-29.375,47.555-28.688c-7.008-1.094-24.199,2.152-32.676,6.609c-7.059,3.727-25.484,19.398-26.938,14.09
		c-3.129-14.004,11.156-23.027,39.211-30.012c-11.762,0.391-25.762,7.844-36.988,8.625c-6.695-20.539,48.492-27.047,66.156-26.602
		c7.121,0.176,15.242,0.438,23.426,0.949c-3.324-10.266-7.219-21.723-11.785-34.246c0,0-24.824,4.219-62.055,6.535
		c0.004,0.02,0.023,0.027,0.023,0.047c0.016,0.625-0.477,1.141-1.102,1.156c-8.371,0.195-16.223,0.414-23.676,0.629
		c-15.52,0.434-29.262,0.816-42.18,0.816c-25.484,0-47.727-1.504-73.957-7.105c-0.594-0.133-0.969-0.715-0.863-1.309
		c-1.563-0.258-3.121-0.496-4.688-0.77c0,0-27.988,30.203-33.766,72.418c-7.074,51.688-12.113,132.488-15.691,217.887
		c-1.344,31.984-2.484,64.605-3.441,96.602h137.063l8.098-91.258l2.617-29.453c-0.57-0.055-1.027-0.5-1.027-1.082l-0.313-62.891
		h-14.406c-0.617,0-1.125-0.504-1.125-1.129v-79.68c0-0.621,0.508-1.125,1.125-1.125c0.625,0,1.129,0.504,1.129,1.125v78.551h13.59
		v-93.578c0-0.621,0.5-1.125,1.125-1.125s1.125,0.504,1.125,1.125v94.707c0,0.293-0.125,0.547-0.305,0.746l0.305,63.266
		c0.004,0.594-0.477,1.066-1.063,1.105l1.676,29.27l5.231,91.426h147.121C780.82,1963.375,780.457,1926.281,779.578,1893.008z
		 M536.809,1644c-0.609-0.113-1.012-0.703-0.895-1.316c0.105-0.609,0.691-1.012,1.313-0.895c0.965,0.18,97.906,17.777,193.492,0
		c0.613-0.117,1.195,0.285,1.308,0.895c0.117,0.613-0.281,1.203-0.891,1.316c-32.172,5.984-64.488,7.98-93.277,7.98
		C580.715,1651.98,537.457,1644.121,536.809,1644z"/>
	<path style="fill:#E6817A;" d="M637.16,1252.539c-12.094,9.246-25.902,15.641-41.902,11.395v13.691
		c9.219,0,26.953-6.34,42.144-20.824C637.324,1255.379,637.238,1253.961,637.16,1252.539z"/>
	<g>
		<path style="fill:#F7B5AB;" d="M580.519,287.297c21.832,1.266,35.774-14.496,46.848-30.738l0.461,8.695
			c-5.664,13.578-19.176,33.254-46.672,34.715c0,0,0.109,3.25,1.48,7.664l0.004-0.004c0.606-0.191,1.223,0.148,1.406,0.742
			c4.164,13.559,13.727,20.938,28.414,21.914c9.594,0.637,29.379-2.625,35.719-19.617c0.195-0.523,0.746-0.758,1.277-0.656
			c0.996-3.863,1.441-8.344,0.918-13.723l-1.883-35.543c-2.043-6.18-8.156-10.617-10.168-17.332c2.637,0.273,5.309-0.02,7.883-0.98
			c10.145-3.801,14.781-16.43,10.375-28.203c-4.414-11.773-16.207-18.238-26.348-14.434c-9.125,3.418-13.734,13.973-11.375,24.625
			c-0.012,0.047-0.02,0.09-0.023,0.137c0.207-1.695-4.625,0.434-7.961-21.75c-1.231-8.125,2.367-11.652-0.57-18.277
			c-2.211-4.984-8.414-3.895-14.148-7.586c-4.305-2.781-7.481-6.039-8.781-9.691c-3.594,0.629-7.141,1.305-10.836,2.746
			c-9.047,3.539-18.793,3.23-27.648,6.738c-8.394,3.328-12.125,8.25-13.484,14.188c-0.508,5.422-0.281,11.34,0.477,17.605
			c0.551,3.441,1.188,6.996,1.711,10.617c0.926,4.695,2.058,9.523,3.371,14.453c1.258,4.746,2.648,9.563,4.145,14.434
			c4.836,15.703,15.5,38.047,35.367,39.258C580.496,287.293,580.508,287.297,580.519,287.297z M642.734,225.715
			c-0.746,0.285-1.563,0.398-2.383,0.398c-2.105,0-4.258-0.77-5.406-1.449c-2.051-1.215-4.348-4.309-4.379-6.82
			c-0.008-0.621,0.488-1.133,1.117-1.141c0.57,0.02,1.129,0.488,1.141,1.113c0.008,1.301,1.191,3.109,2.414,4.223
			c0.652-3.426,3.098-6.84,6.484-6.984c0.625,0.031,1.145,0.457,1.176,1.074c0.023,0.625-0.465,1.152-1.082,1.18
			c-2.379,0.098-4.273,3.219-4.488,5.957c0,0.008-0.008,0.016-0.008,0.023c1.398,0.508,3.269,0.832,4.617,0.32
			c0.586-0.215,1.234,0.07,1.453,0.652C643.609,224.848,643.313,225.492,642.734,225.715z M629.496,210.512
			c6.523-6.59,13.523-4.777,17.523-1.23c5.371,4.754,7.52,13.961,1.832,21.148l-0.883,0.422l-0.699-0.242
			c-0.488-0.383-0.574-1.098-0.188-1.582c4.863-6.141,3.023-14.004-1.555-18.059c-3.43-3.039-9.019-4.34-14.433,1.133l-1.598,0.004
			V210.512z M597.031,215.699c-0.387,0.48-1.094,0.563-1.582,0.168c-1.344-1.086-3.16-1.57-4.988-1.629
			c1.188,0.504,2.324,1.664,2.941,3.32c0.965,2.59,0.34,5.211-1.398,5.863c-1.742,0.652-3.938-0.914-4.906-3.508
			c-0.871-2.305-0.402-4.563,0.926-5.504c-1.625,0.309-3.094,0.949-4.023,1.859l-0.789,0.324l-0.801-0.336l0.016-1.594
			c3.09-3.039,10.219-3.961,14.441-0.551C597.348,214.508,597.422,215.215,597.031,215.699z M575.445,200.563
			c4.051-2.859,11.484-3.242,16.414-3.492c1.938-0.102,4.535-0.398,6.289,0.664c0.707,0.418,3.551,3.383,2.207,4.359
			c-3.094,2.246-7.504,2.313-11.035,2.449c-3.711,0.141-7.145,0.848-10.738,1.219C574.793,206.16,571.246,203.516,575.445,200.563z
			 M544.742,213.902c-3.324,0.965-7.141-1.016-4.035-4.512c3-3.379,9.613-4.906,14.012-5.91c1.723-0.398,3.996-1.086,5.828-0.336
			c0.73,0.293,3.988,2.711,3.004,3.844c-2.277,2.648-6.234,3.391-9.398,4.07C550.832,211.773,547.898,212.988,544.742,213.902z
			 M556.457,228.828c-1.738,0.652-3.941-0.918-4.91-3.504c-0.969-2.59-0.34-5.215,1.398-5.867c1.734-0.648,3.938,0.918,4.906,3.504
			C558.82,225.551,558.191,228.18,556.457,228.828z M560.461,221.641l-0.93-0.477c-1.004-1.438-2.324-2.266-3.926-2.461
			c-1.668-0.199-3.187,0.355-3.691,0.797c-0.473,0.41-1.18,0.363-1.594-0.105c-0.41-0.469-0.367-1.18,0.109-1.59
			c0.996-0.871,3.188-1.621,5.449-1.34c1.555,0.191,3.773,0.938,5.504,3.402c0.355,0.512,0.23,1.211-0.281,1.566L560.461,221.641z
			 M561.438,238.336c-0.223-0.652-0.391-1.938,0.941-3.18c0.652-0.613,1.621-1.199,2.641-1.816c1.488-0.902,3.742-2.266,3.688-3.266
			c-0.098-2.168-1.078-5.984-3.484-9.602c-0.348-0.52-0.203-1.219,0.313-1.563c0.516-0.344,1.219-0.207,1.566,0.313
			c2.66,4,3.734,8.172,3.855,10.738c0.117,2.344-2.48,3.918-4.773,5.305c-0.918,0.559-1.789,1.082-2.266,1.535
			c-0.469,0.441-0.391,0.691-0.348,0.824c0.394,1.18,3.352,2.77,6.973,3.156c0.617,0.07,1.062,0.625,1,1.242
			c-0.063,0.582-0.551,1.004-1.121,1.004l-0.121-0.004C566.535,242.613,562.281,240.875,561.438,238.336z M567.531,252.055
			c-0.609,0-1.109-0.484-1.125-1.098c-0.016-0.621,0.473-1.137,1.098-1.156c5.445-0.141,10.164-2.152,12.613-5.391
			c0.375-0.496,1.082-0.594,1.582-0.219c0.488,0.375,0.59,1.082,0.215,1.578c-2.863,3.777-8.223,6.125-14.352,6.285H567.531z"/>
		<path style="fill:#F7B5AB;" d="M1545.273,220.395c-1.199-19.863-3.48-38.594-9.094-52.66c-4.078-6.848-14.824-17.688-40.086-8.789
			c0,0-27.84,8.258-23.961,25.75c0.645,16.684-0.215,32.176-4.141,39.574c-0.02-0.031-0.039-0.063-0.059-0.098
			c-1.516-10.813-9.539-19.086-19.293-19.086c-10.832,0-19.605,10.188-19.605,22.758c0,12.574,8.773,22.766,19.605,22.766
			c0.184,0,0.355-0.059,0.539-0.063c-1.559-0.75-2.656-2.316-2.656-4.168c0-2.566,2.078-4.645,4.648-4.645
			c2.574,0,4.648,2.078,4.648,4.645c0,1.172-0.465,2.215-1.184,3.031c3.223-1.207,6.074-3.297,8.328-6.105
			c0.297,0.582,0.594,1.156,0.934,1.77c1.324,2.375,1.824,5.027,1.727,8.09c-0.215,6.781-3.68,15.805-9.805,29.82
			c0.305-0.383,0.07-1.188-0.5-2.242v34.145c-0.238,5.402,0.449,9.852,1.652,13.66c0.523-0.133,1.09,0.07,1.313,0.586
			c7.227,16.629,27.164,18.84,36.703,17.695c14.621-1.766,23.773-9.637,27.215-23.395c0.152-0.605,0.75-0.973,1.363-0.824
			c0.004,0,0.004,0.008,0.004,0.008c1.137-4.48,1.078-7.73,1.078-7.73V288.27c-9.594,0-28.41-6.758-43.969-22.504l-0.887-2.906
			c13.637,8.313,28.777,13.699,44.855,7.184c0.414-0.168,0.82-0.285,1.234-0.465
			C1544.113,261.492,1546.258,236.801,1545.273,220.395z M1443.5,239.914l-0.969,0.543l-0.574-0.16
			c-7.852-4.727-9.07-14.109-5.711-20.445c2.504-4.727,8.422-8.875,16.852-4.992c0.559,0.262,0.809,0.934,0.551,1.496
			c-0.258,0.57-0.938,0.813-1.496,0.551c-6.984-3.223-11.777-0.039-13.918,4.004c-2.867,5.406-1.82,13.418,4.887,17.461
			C1443.652,238.688,1443.816,239.379,1443.5,239.914z M1452.945,230.023c-1.152,1.438-4.059,3.719-6.918,3.719
			c-0.621,0-1.129-0.508-1.129-1.125c0-0.625,0.508-1.125,1.129-1.125c1.453,0,3.09-0.961,4.219-1.926l-0.02-0.016
			c-1.156-2.492-4.031-4.758-6.293-4.008c-0.59,0.191-1.223-0.129-1.418-0.723c-0.195-0.59,0.125-1.227,0.715-1.422
			c3.219-1.047,6.711,1.293,8.523,4.266c0.754-1.473,1.227-3.574,0.789-4.805c-0.215-0.586,0.094-1.234,0.676-1.445
			c0.59-0.203,1.23,0.098,1.441,0.684C1455.508,224.461,1454.438,228.172,1452.945,230.023z M1513.242,197.91
			c0.527-0.008,1.133,0.484,1.152,1.105c0.117,5.871,4.711,8.992,9.152,12.02c1.078,0.73,2.141,1.457,3.125,2.207
			c0.453,0.344,0.574,0.977,0.281,1.469c-1.938,3.242-4.113,5.508-9.48,7.508l-0.395,0.07c-0.457,0-0.891-0.277-1.059-0.73
			c-0.219-0.586,0.078-1.234,0.664-1.453c4.648-1.734,6.414-3.551,7.801-5.68c-0.711-0.512-1.457-1.02-2.207-1.527
			c-4.684-3.191-10-6.809-10.141-13.84C1512.121,198.438,1512.621,197.922,1513.242,197.91z M1531.281,201.379
			c0,2.766-1.516,5-3.367,5c-1.855,0-3.367-2.234-3.367-5c0-1.121,0.293-2.105,0.711-2.938c-0.605,0.527-1.254,1.137-1.988,1.945
			l-0.832,0.367l-0.754-0.293c-0.465-0.418-0.5-1.129-0.078-1.594c5.145-5.645,7.973-5.125,11.395-3.766l0.57,0.219
			c0.582,0.219,0.875,0.871,0.652,1.457c-0.219,0.586-0.871,0.871-1.453,0.648l-0.594-0.23c-1.258-0.492-2.348-0.914-3.652-0.641
			C1530.07,196.996,1531.281,198.938,1531.281,201.379z M1499.195,203.715c-0.246,0.57-0.914,0.824-1.484,0.574
			c-1.191-0.531-2.797-0.621-4.434-0.336c1.59,0.406,2.816,2.363,2.816,4.84c0,2.758-1.504,5-3.367,5c-1.859,0-3.367-2.242-3.367-5
			c0-1.777,0.66-3.266,1.598-4.152c-1.695,0.695-3.223,1.793-4.105,3.285l-0.969,0.555l-0.574-0.156
			c-0.531-0.316-0.715-1.008-0.402-1.543c2.758-4.672,9.766-6.316,13.727-4.551C1499.195,202.484,1499.457,203.145,1499.195,203.715
			z M1497.258,194.387c-3.336,0.176-5.285,0.977-8.18,2.336c-2.527,1.188-5.988,3.25-8.809,2.855
			c-2.574-4.285,5.188-8.676,8.945-10.27c2.863-1.207,13.262-3.168,14.344,1.477
			C1504.375,194.254,1499.379,194.273,1497.258,194.387z M1523.934,246.535c-4.902,0-10.773-4.32-17.934-13.211l-0.195-1.043
			l0.746-0.746l27.418-8.34l1.008,0.18l0.445,0.922C1535.402,225.203,1534.867,246.535,1523.934,246.535z M1527.254,187.133
			c-5.938,1.785-9.184,5.617-11.586,2.723c-2.391-6.625,9.316-8.789,13.668-9.34c2.09-0.258,9.395-0.969,9.828,2.426
			C1539.547,185.973,1529.891,186.344,1527.254,187.133z"/>
		<path style="fill:#F7B5AB;" d="M1478.992,1283.871v-0.004l39.77,13.047c0.027-0.023,0.039-0.055,0.059-0.074l-42.367-13.801
			L1478.992,1283.871z"/>
		<path style="fill:#F7B5AB;" d="M1476.41,1238.699l-0.023,12.438c-6.988,7.063-19.723,10.641-32.508,12.441
			c-11.438,8.879-25.484,13.723-36.75,12.961v6.5l25.199,30.227l44.125-30.227v-44.309
			C1476.441,1238.719,1476.426,1238.711,1476.41,1238.699z"/>
		<path style="fill:#F7B5AB;" d="M1458.992,1204.551c1.699,3.105,2.453,5.648,4.168,7.969c0.031-1.75,0.285-3.445,0.867-5.023
			c0.039-0.109,0.066-0.215,0.109-0.32c4.309,4.191,9.98,6.441,15.832,5.512c10.688-1.703,17.762-13.148,15.789-25.559
			c-1.973-12.422-12.238-21.109-22.938-19.406c-8.93,1.418-15.254,9.652-15.98,19.547c-0.102,1.445-0.078,2.914,0.066,4.406
			C1456.305,1195.676,1456.242,1199.512,1458.992,1204.551z M1480.672,1187.191c-2.332-0.391-4.828,2.305-5.582,4.945
			c-0.004,0.008-0.016,0.008-0.016,0.02c1.27,0.777,3.035,1.469,4.465,1.234c0.621-0.09,1.191,0.324,1.289,0.938
			c0.105,0.613-0.316,1.195-0.934,1.289l-0.918,0.07c-2.574,0-5.281-1.551-6.504-2.656c-1.758-1.598-3.395-5.094-2.926-7.555
			c0.109-0.613,0.711-1.008,1.313-0.902c0.609,0.117,1.012,0.707,0.895,1.316c-0.234,1.285,0.563,3.293,1.539,4.629
			c1.324-3.227,4.402-6.063,7.742-5.555c0.609,0.098,1.031,0.676,0.93,1.289C1481.871,1186.867,1481.301,1187.289,1480.672,1187.191
			z M1469.957,1178.078c7.711-5.152,14.203-1.992,17.426,2.285c4.301,5.73,4.578,15.184-2.43,21.086l-0.723,0.27l-0.867-0.398
			c-0.395-0.477-0.34-1.191,0.141-1.59c5.984-5.043,5.75-13.121,2.07-18.012c-2.746-3.66-7.969-6.047-14.367-1.77
			c-0.516,0.348-1.219,0.207-1.559-0.305C1469.297,1179.121,1469.438,1178.426,1469.957,1178.078z"/>
		<path style="fill:#F7B5AB;" d="M1379.789,1198c0.324-0.867-0.129-1.836-0.246-2.758
			C1379.629,1196.164,1379.699,1197.074,1379.789,1198z"/>
		<path style="fill:#F7B5AB;" d="M1445.004,1198.324c2.887-2.848,4.211-7.105,5.184-10.906c0.566-2.16,0.758-9.59,1.168-11.789
			c0.109-0.605,0.328-0.762,0.586-0.75c-1.059-2.457-1.938-4.547-2.148-5.434c-1.832-7.723-2.738-15.195-5.328-22.613
			c-4.766-13.668-9.559-14.273-23.586-12.926c-6.504,0.621-20.238-1.469-32.773-6.887c-7.98,10.637-10.281,27.191-9.902,46.277
			c0.145,7,0.641,14.34,1.332,21.828c1.66,2.613,3.664,4.414,6.105,3.758c4.617-1.238,6.328-3.039,10.98-4.32
			c7.871-2.168,17.484-0.641,24.656,3.301C1429.234,1202.23,1437.582,1205.645,1445.004,1198.324z M1383.551,1158.387
			c3.871-2.332,10.641-1.82,15.137-1.476c1.762,0.137,4.145,0.156,5.664,1.414c0.613,0.5,3.004,3.77,1.727,4.57
			c-2.961,1.84-6.969,1.379-10.184,1.086c-3.379-0.301-6.539-0.02-9.828-0.078
			C1382.598,1163.832,1379.555,1160.797,1383.551,1158.387z M1391.266,1171.531c-1.883,0.102-3.711,1.738-5.145,4.605l-1.012,0.621
			l-0.504-0.121c-0.551-0.277-0.785-0.953-0.5-1.508c1.813-3.625,4.313-5.695,7.039-5.848c2.43-0.074,4.711,1.25,6.422,3.902
			c0.336,0.527,0.184,1.223-0.336,1.559c-0.527,0.34-1.223,0.184-1.559-0.336C1394.418,1172.469,1392.875,1171.43,1391.266,1171.531
			z M1398.75,1186.203c1.359,1.488,1.727,1.793,6.816,4.637c0.539,0.305,0.734,0.992,0.43,1.535l-0.984,0.574l-0.547-0.141
			c-5.262-2.945-5.828-3.383-7.383-5.098c-0.664-0.734-1.531-1.867-1.398-3.215c0.152-1.457,1.391-2.477,2.641-3.391
			c3.238-2.348,7.094-6.363,7.129-12.113c0.004-0.621,0.508-1.121,1.125-1.121h0.012c0.617,0.008,1.125,0.512,1.121,1.133
			c-0.047,6.691-4.402,11.262-8.055,13.93c-0.781,0.563-1.676,1.281-1.73,1.793
			C1397.891,1185.055,1398.176,1185.566,1398.75,1186.203z M1417.477,1157.5c4.621-1.816,11.93-0.438,16.77,0.48
			c1.906,0.367,4.504,0.688,5.965,2.137c0.578,0.574,2.645,4.129,1.117,4.754c-3.543,1.453-7.84,0.477-11.305-0.23
			c-3.648-0.734-7.148-0.855-10.723-1.344C1415.523,1162.785,1412.703,1159.379,1417.477,1157.5z M1420.211,1174.742
			c-0.52-0.336-0.676-1.031-0.336-1.559c1.711-2.652,4-3.973,6.422-3.902c2.727,0.152,5.23,2.223,7.035,5.848
			c0.281,0.555,0.059,1.23-0.504,1.508l-0.5,0.121l-1.004-0.621c-1.438-2.867-3.266-4.504-5.148-4.605
			c-1.625-0.102-3.152,0.938-4.41,2.875C1421.43,1174.934,1420.734,1175.082,1420.211,1174.742z"/>
		<path style="fill:#F7B5AB;" d="M664.582,1301.211c-1.023,0.898-2.215,1.938-3.516,3.031c-8.063,6.781-20.219,15.434-21.109,1.356
			c-0.031-0.453-0.051-0.902-0.074-1.356c-0.981-15.875-1.652-31.688-2.481-47.441c-15.191,14.484-32.926,20.824-42.144,20.824
			v26.617c0,0-0.059,3.254,1.074,7.727c0,0,0,0,0.004,0c0.606-0.145,1.215,0.215,1.363,0.82
			c3.441,13.758,12.594,21.629,27.211,23.395c9.551,1.133,29.48-1.074,36.711-17.695c0.223-0.512,0.785-0.719,1.313-0.586
			c1.203-3.809,1.891-8.258,1.648-13.66V1301.211z"/>
		<path style="fill:#F7B5AB;" d="M637.16,1252.539c-0.633-11.41-1.355-22.793-2.465-34.109c-1.02-10.387-2.363-20.719-3.992-31.039
			c-0.035,0.359-0.035,0.719-0.203,1.105c-2.75,0.734-6.438-0.883-9.094-1.746c-3.039-0.98-5.067-1.543-8.402-1.305
			c-2.125,0.156-7.086,0.758-6.703-2.789c0.496-4.746,11.059-4.09,14.043-3.246c3.07,0.871,8.707,3.148,10.098,6.273
			c-0.785-4.875-1.613-9.746-2.543-14.621c-1.613-8.492-4.617-13.402-8.992-18.422c-5.027-1.82-9.148-2.508-9.148-2.508
			c-26.203-5.695-35.508,6.434-38.695,13.727c-3.816,14.652-3.754,33.508-2.477,53.352c1.063,16.41,6.246,40.641,25.344,46.402
			c0.449,0.133,0.883,0.203,1.328,0.32C611.258,1268.18,625.066,1261.785,637.16,1252.539z M612.617,1193.402
			c3.703-2.242,10.867-1.48,14.176,2.813c0.379,0.492,0.285,1.203-0.207,1.582l-0.691,0.234l-0.891-0.445
			c-1.059-1.367-2.711-2.258-4.473-2.742c1.035,0.77,1.875,2.164,2.094,3.922c0.34,2.738-0.875,5.145-2.723,5.379
			c-1.844,0.227-3.617-1.809-3.961-4.547c-0.309-2.445,0.668-4.539,2.184-5.145c-1.652-0.082-3.231,0.207-4.348,0.879
			c-0.527,0.32-1.223,0.152-1.543-0.387C611.91,1194.414,612.082,1193.723,612.617,1193.402z M597.582,1190.934
			c0.594-0.074,1.172,0.379,1.231,1.004c0.738,6.988-4.086,11.238-8.344,14.984c-0.68,0.598-1.352,1.195-1.992,1.793
			c1.633,1.938,3.609,3.523,8.438,4.664c0.609,0.145,0.984,0.75,0.84,1.352c-0.121,0.52-0.586,0.867-1.098,0.867l-0.258-0.027
			c-5.586-1.32-8.023-3.293-10.344-6.266l0.102-1.5c0.883-0.863,1.848-1.711,2.824-2.574c4.031-3.551,8.203-7.223,7.594-13.063
			C596.512,1191.547,596.961,1190.996,597.582,1190.934z M570.004,1179.289c0.008-3.422,7.34-3.617,9.445-3.617
			c4.391,0,16.273,0.691,14.719,7.566c-2.024,3.172-5.715-0.234-11.836-1.27C579.625,1181.52,569.992,1182.352,570.004,1179.289z
			 M582.25,1191.484c-1.336-0.109-2.356,0.438-3.543,1.09l-0.57,0.297c-0.539,0.293-1.23,0.086-1.519-0.461
			c-0.297-0.551-0.082-1.234,0.469-1.527l0.543-0.293c3.223-1.766,5.965-2.633,11.769,2.328c0.469,0.406,0.527,1.117,0.125,1.59
			l-0.859,0.395l-0.734-0.273c-0.828-0.711-1.543-1.23-2.215-1.68c0.52,0.774,0.93,1.715,1.07,2.824
			c0.348,2.746-0.871,5.152-2.719,5.379c-1.836,0.23-3.613-1.797-3.953-4.543C579.805,1194.184,580.762,1192.109,582.25,1191.484z
			 M580.664,1221.387l0.125-1.02l0.895-0.488l28.656-0.906l0.949,0.465l0.141,1.047c-4.598,12.57-9.57,18.68-15.16,18.68
			C587.191,1239.16,580.922,1222.113,580.664,1221.387z"/>
	</g>
	<path style="fill:#21263D;" d="M615.941,1199.598c0.344,2.738,2.117,4.773,3.961,4.547c1.848-0.234,3.063-2.641,2.723-5.379
		c-0.219-1.758-1.059-3.152-2.094-3.922c-0.797-0.215-1.609-0.352-2.406-0.391C616.609,1195.059,615.633,1197.152,615.941,1199.598z
		"/>
	<path style="fill:#21263D;" d="M580.113,1196.609c0.34,2.746,2.117,4.773,3.953,4.543c1.848-0.227,3.066-2.633,2.719-5.379
		c-0.141-1.109-0.551-2.051-1.07-2.824c-1.406-0.945-2.527-1.387-3.465-1.465C580.762,1192.109,579.805,1194.184,580.113,1196.609z"
		/>
	<path style="fill:#A46C34;" d="M570.758,1134.156c-3.129,5.629-5.383,12.551-5.836,18.996c-0.207,2.992-0.066,5.938,0.859,8.805
		c0.488,1.488,3.867,5.691,3.699,6.898c0,0,0.336-2.141,1.582-4.996c3.188-7.293,12.492-19.422,38.695-13.727
		c0,0,4.121,0.688,9.148,2.508c-1.848-2.121-3.922-4.258-6.277-6.691c-8.148-8.414,3.863-13.953,12.668-16.738
		c17.945-5.668,41.855-2.523,57.492,8.078c7.133,4.828,11.805,12.09,15.023,20.371c-4.137-16.969-16.277-30.207-40.199-38.356
		c-15.547-5.293-32.668-6.355-48.918-4.582c-7.172,0.785-14.922,2.387-21.793,5.48
		C580.219,1123.219,574.371,1127.645,570.758,1134.156z"/>
	<path style="fill:#A46C34;" d="M620.344,1179.41c-2.984-0.844-13.547-1.5-14.043,3.246c-0.383,3.547,4.578,2.945,6.703,2.789
		c3.336-0.238,5.363,0.324,8.402,1.305c2.656,0.863,6.344,2.48,9.094,1.746c0.168-0.387,0.168-0.746,0.203-1.105
		c-0.086-0.574-0.172-1.141-0.262-1.707C629.051,1182.559,623.414,1180.281,620.344,1179.41z"/>
	<path style="fill:#21263D;" d="M613.777,1195.332c1.117-0.672,2.695-0.961,4.348-0.879c0.797,0.039,1.609,0.176,2.406,0.391
		c1.762,0.484,3.414,1.375,4.473,2.742l0.891,0.445l0.691-0.234c0.492-0.379,0.586-1.09,0.207-1.582
		c-3.309-4.293-10.473-5.055-14.176-2.813c-0.535,0.32-0.707,1.012-0.383,1.543C612.555,1195.484,613.25,1195.652,613.777,1195.332z
		"/>
	<path style="fill:#21263D;" d="M585.715,1192.949c0.672,0.449,1.387,0.969,2.215,1.68l0.734,0.273l0.859-0.395
		c0.402-0.473,0.344-1.184-0.125-1.59c-5.805-4.961-8.547-4.094-11.769-2.328l-0.543,0.293c-0.551,0.293-0.766,0.977-0.469,1.527
		c0.289,0.547,0.98,0.754,1.519,0.461l0.57-0.297c1.188-0.652,2.207-1.199,3.543-1.09
		C583.188,1191.563,584.309,1192.004,585.715,1192.949z"/>
	<path style="fill:#21263D;" d="M595.516,1313.332c3.684,14.758,13.488,23.203,29.133,25.086c1.387,0.172,2.984,0.27,4.731,0.27
		c10.945,0,27.613-3.906,34.309-19.297c0.25-0.578-0.012-1.238-0.586-1.488c-0.059-0.023-0.109,0.012-0.168,0
		c-0.527-0.133-1.09,0.074-1.313,0.586c-7.231,16.621-27.16,18.828-36.711,17.695c-14.617-1.766-23.77-9.637-27.211-23.395
		c-0.148-0.605-0.758-0.965-1.363-0.82c-0.004,0-0.004,0-0.004,0C595.73,1312.121,595.367,1312.73,595.516,1313.332z"/>
	<path style="fill:#A46C34;" d="M594.168,1183.238c1.555-6.875-10.328-7.566-14.719-7.566c-2.105,0-9.438,0.195-9.445,3.617
		c-0.012,3.063,9.621,2.23,12.328,2.68C588.453,1183.004,592.144,1186.41,594.168,1183.238z"/>
	<path style="fill:#FFFFFF;" d="M596.269,1236.91c4.203,0,8.496-5.399,12.457-15.637l-25.379,0.805
		C585.492,1227.262,590.625,1236.91,596.269,1236.91z"/>
	<path style="fill:#21263D;" d="M611.43,1220.484l-0.141-1.047l-0.949-0.465l-28.656,0.906l-0.895,0.488l-0.125,1.02
		c0.258,0.727,6.527,17.774,15.605,17.777C601.859,1239.164,606.832,1233.055,611.43,1220.484z M608.727,1221.273
		c-3.961,10.238-8.254,15.637-12.457,15.637c-5.644,0-10.777-9.649-12.922-14.832L608.727,1221.273z"/>
	<path style="fill:#21263D;" d="M598.813,1191.938c-0.059-0.625-0.637-1.078-1.231-1.004c-0.621,0.063-1.07,0.613-1.008,1.234
		c0.609,5.84-3.563,9.512-7.594,13.063c-0.977,0.863-1.941,1.711-2.824,2.574l-0.102,1.5c2.32,2.973,4.758,4.945,10.344,6.266
		l0.258,0.027c0.512,0,0.977-0.348,1.098-0.867c0.144-0.602-0.231-1.207-0.84-1.352c-4.828-1.141-6.805-2.727-8.438-4.664
		c0.641-0.598,1.313-1.195,1.992-1.793C594.727,1203.176,599.551,1198.926,598.813,1191.938z"/>
	<path style="fill:#21263D;" d="M807.484,1589.016c-0.262,0.406-0.516,0.816-0.777,1.227c-6.664,10.469-13.559,21.289-20.945,34.098
		c-0.313,0.539-0.125,1.23,0.41,1.535h0.012l0.551,0.152l0.977-0.563c7.367-12.762,14.246-23.566,20.902-34.012
		c7.301-11.477,14.32-22.523,21.242-35.016c-0.641-0.395-1.281-0.777-1.922-1.184c-0.027,0.055-0.063,0.113-0.094,0.172
		C821.207,1567.387,814.477,1578.031,807.484,1589.016z"/>
	<g>
		<path style="fill:#B46E7B;" d="M471.68,1580.805c0,0-2.637,2.078-7.059,4.652c2.742,2.383,5.559,4.734,8.531,7.02l38.543-44.543
			c-0.48-1.883-0.938-3.746-1.387-5.598L471.68,1580.805z"/>
		<path style="fill:#B46E7B;" d="M856.699,1385.641c-30.699-23.18-70.164-57.414-111.586-62.316c-0.844-0.199-1.637-0.434-2.5-0.617
			l-78.031-18.465c0.242,5.402-0.445,9.852-1.648,13.66c0.059,0.012,0.109-0.023,0.168,0c0.574,0.25,0.836,0.91,0.586,1.488
			c-6.695,15.391-23.363,19.297-34.309,19.297c-1.746,0-3.344-0.098-4.731-0.27c-15.644-1.883-25.449-10.328-29.133-25.086
			c-0.148-0.602,0.215-1.211,0.816-1.363c-1.133-4.473-1.074-7.727-1.074-7.727l-30.945,10.848l-47.41,16.625
			c0,0-23.125,7.582-36.113,28.594l-81.777,102.578c0,0,0.672,6.887,3.324,17.875c1.359,5.645,3.25,12.371,5.844,19.828
			c14.203-13.527,29.688-21.504,29.688-21.504l48.59-26.824l129.152-71.305c1.375-12.902,21.324-27.039,29.047-30.668
			c6.789-3.172,18.035-2.141,28.308-6.223c2.672-1.063,4.297-1.305,5.516-1.082l31.059-8.98l13.816-3.988c0,0,6.488,9.527-29,22.723
			c-1.402,0.527-2.867,1.051-4.402,1.582l2.086,2.828l3.652,4.934c0.168,7.207,0.582,12.234,0.91,16.059
			c0.375-0.02,0.742,0.078,0.977,0.406c0.356,0.512,0.234,1.215-0.269,1.574c-0.148,0.105-0.352,0.219-0.516,0.32
			c0.516,6.156,0.457,8.789-2.25,13.348c0.187,0.113,0.383,0.234,0.48,0.453c0.254,0.566,0,1.234-0.563,1.492
			c-0.484,0.215-1.043,0.422-1.566,0.633c-1.414,2.07-3.301,4.629-5.719,7.875c-0.391,0.523-0.734,0.988-1.156,1.551
			c-7.144,9.594-24.238,4.23-37.484-1.109l-136.352,135.785c1.711,7.277,3.769,14.879,5.813,22.379
			c2.121,7.766,4.313,15.805,6.035,23.246c0.133,0.598-0.231,1.172-0.809,1.332l8.012,29.465c1.566,0.273,3.125,0.512,4.688,0.77
			c0.004-0.012-0.004-0.02-0.004-0.031c0.133-0.605,0.715-0.984,1.34-0.867c39.258,8.387,69.633,7.535,115.605,6.238
			c7.449-0.207,15.313-0.434,23.688-0.629c0.578,0.055,1.082,0.465,1.125,1.055c37.231-2.316,62.055-6.535,62.055-6.535
			l17.363-40.992l-0.176-0.039c-0.563-0.242-0.828-0.906-0.594-1.477c7.289-17.027,13.906-32.059,20.313-46.59
			c0.891-2.027,1.758-4,2.641-6.008c8.488-19.27,16.578-37.773,24.375-57.066c0.234-0.582,0.891-0.855,1.473-0.625
			c0.574,0.234,0.848,0.891,0.617,1.465c-7.875,19.477-16.039,38.129-24.594,57.574c13.242,9.516,26.57,18.445,39.02,26.992
			c2.582,1.773,5.176,3.48,7.766,5.129c0.641,0.406,1.281,0.789,1.922,1.184c1.09,0.676,2.18,1.387,3.273,2.023
			c14.031-9.82,26.352-22.508,36.875-35.988c12.535-16.059,23.129-33.902,31.758-52.629c1.477-3.207,2.875-6.445,4.227-9.699
			c3.781-9.051,7.164-18.246,10.023-27.539C896.629,1418.227,876.059,1400.254,856.699,1385.641z"/>
	</g>
	<path style="fill:#21263D;" d="M756.324,1574.383c-0.234,0.57,0.031,1.234,0.594,1.477l0.176,0.039l0.273,0.055l1.031-0.688
		c7.281-17.016,13.898-32.039,20.305-46.566c0.828-1.879,1.625-3.703,2.445-5.566c8.555-19.445,16.719-38.098,24.594-57.574
		c0.23-0.574-0.043-1.23-0.617-1.465c-0.582-0.23-1.238,0.043-1.473,0.625c-7.797,19.293-15.887,37.797-24.375,57.066
		c-0.883,2.008-1.75,3.98-2.641,6.008C770.23,1542.324,763.613,1557.355,756.324,1574.383z"/>
	<path style="fill:#21263D;" d="M676.551,1622.371c-8.375,0.195-16.238,0.422-23.688,0.629
		c-45.973,1.297-76.348,2.148-115.605-6.238c-0.625-0.117-1.207,0.262-1.34,0.867c0,0.012,0.008,0.02,0.004,0.031
		c-0.105,0.594,0.27,1.176,0.863,1.309c26.23,5.602,48.473,7.105,73.957,7.105c12.918,0,26.66-0.383,42.18-0.816
		c7.453-0.215,15.305-0.434,23.676-0.629c0.625-0.016,1.117-0.531,1.102-1.156c0-0.02-0.019-0.027-0.023-0.047
		C677.633,1622.836,677.129,1622.426,676.551,1622.371z"/>
	<path style="fill:#21263D;" d="M524.031,1586.094c-1.723-7.441-3.914-15.48-6.035-23.246c-2.043-7.5-4.102-15.102-5.813-22.379
		l-1.875,1.867c0.449,1.852,0.906,3.715,1.387,5.598c1.309,5.133,2.715,10.344,4.125,15.5c2.113,7.754,4.301,15.77,6.008,23.168
		c0.125,0.523,0.59,0.879,1.102,0.879l0.258-0.031c0.016-0.004,0.019-0.02,0.035-0.023
		C523.801,1587.266,524.164,1586.691,524.031,1586.094z"/>
	<g>
		<path style="fill:#F4A69A;" d="M478.34,601.734c3.121-0.188,5.516-0.496,6.863-0.703l0.113-3.59
			c0.43-21.977,0.73-42.965,0.934-62.086c-15.285-15.313-30.594-33.418-40.5-52.172l-12.965,35.145L248.918,401.75l-1.527,1.547
			l-5.805-6.086l-6.984-6.16l-16.961-14.945c-7.074,6.141,0.805,17.379,4.418,21.82c0.484-0.363,1.168-0.289,1.551,0.191
			c1.875,2.355,3.102,5.043,4.285,7.637c1.145,2.504,2.223,4.867,3.797,6.793c3.387,4.137,11.43,6.309,14.078,7.027
			c0.598,0.16,0.953,0.777,0.793,1.383c-0.137,0.5-0.598,0.832-1.09,0.832l-0.297-0.039c-2.816-0.766-11.387-3.082-15.23-7.781
			c-1.754-2.145-2.941-4.754-4.102-7.277c-1.035-2.266-2.148-4.566-3.633-6.594c-24.133,4.484-44.59,5.945-44.59,5.945
			c-13.816,0.883-20.078,2.637-20.078,2.637s-5.289,2.445-1.453,5.902c0.371-0.402,0.957-0.539,1.426-0.227
			c4.172,2.75,11.074,2.406,16.617,2.117c0.906-0.043,1.781-0.086,2.602-0.121c8.93-0.324,12.191-0.586,23.816-2.344
			c0.602-0.09,1.188,0.332,1.273,0.945c0.098,0.613-0.324,1.188-0.938,1.281c-11.734,1.777-15.035,2.043-24.07,2.375
			c-0.813,0.027-1.676,0.07-2.57,0.117c-1.82,0.09-3.773,0.191-5.746,0.191c-4.41,0-8.914-0.5-12.227-2.684
			c-0.215-0.141-0.328-0.367-0.406-0.594c-7.625,2.742-1.84,8.941-1.84,8.941c0.418,0.473,1.367,0.918,2.59,1.344
			c0.172-0.477,0.574-0.832,1.121-0.773c1.789,0.184,3.406,0.379,4.953,0.563c5.555,0.668,10.402,1.199,19.219,1.215h1.016
			c8.297-0.02,16.133-0.039,22.711-1.477c0.602-0.137,1.207,0.254,1.34,0.863c0.129,0.602-0.254,1.207-0.859,1.34
			c-6.816,1.484-14.766,1.504-23.187,1.523l-1.016,0.004h-0.543c-8.652,0-13.426-0.57-18.941-1.227
			c-1.098-0.133-2.301-0.266-3.496-0.402c-1.898,1.898-0.582,3.305-0.582,3.305c1.773,2.934,4.98,5.129,8.805,6.805
			c0.195-0.418,0.566-0.727,1.051-0.695c11.227,1.074,13.402,1.117,33.297,0.637c0.691-0.074,1.141,0.473,1.16,1.102
			c0.016,0.617-0.477,1.133-1.102,1.148c-7.621,0.184-12.676,0.293-16.664,0.293c-5.195,0-8.582-0.188-13.398-0.609
			c-10.805,1.879,18.219,9.996,18.219,9.996c11.684,2.418,32.141,0.199,39.301-0.699c1.625-0.207,2.574-0.344,2.574-0.344
			l18.973-4.094l122.805,138.93C373.371,583.328,429.609,648.969,478.34,601.734z"/>
		<path style="fill:#F4A69A;" d="M301.219,357.168c0.215-0.461,0.664-0.777,1.18-0.664c1.773,0.363,3.367,0.715,4.902,1.051
			c5.457,1.199,10.168,2.238,18.98,3.074l1.047,0.098c8.246,0.785,16.035,1.516,22.711,0.742c0.621-0.102,1.18,0.371,1.25,0.984
			c0.078,0.617-0.367,1.18-0.984,1.25c-2.113,0.25-4.316,0.352-6.602,0.352c-5.188,0-10.77-0.531-16.582-1.082l-1.055-0.102
			c-8.949-0.848-13.723-1.898-19.25-3.113c-1.086-0.234-2.273-0.492-3.461-0.746c-2.078,1.707-0.902,3.234-0.902,3.234
			c1.477,3.094,4.457,5.59,8.098,7.625c0.234-0.402,0.637-0.691,1.121-0.582c11.051,2.152,13.219,2.41,33.082,3.867
			c0.617,0.047,1.086,0.586,1.039,1.207c-0.043,0.598-0.539,1.043-1.125,1.043h-0.082c-17.535-1.289-21.5-1.672-29.871-3.242
			c-10.977,0.809,17.145,11.719,17.145,11.719c13.961,4.352,41.769,3.039,41.769,3.039l19.285-2.23l51.273,70.852l43.773,60.492
			l2.16,2.98l11.5,15.898c0,0,15.996,22.844,39.527,34.859c18.305,9.344,41.164,12.082,64.633-7.523
			c13.73-7.902,26.203-18.039,36.18-27.398l-7.195-8.414c-0.738-0.809-1.484-1.625-2.289-2.473
			c-0.102-0.102-0.094-0.246-0.141-0.375l-53.988-63.121l-11.625,15.254l-102.254-79.766l-69.047-53.863l-1.668,1.383l-5.188-6.625
			l-21.781-23.336c-9.652,6.863,3.715,24.203,3.715,24.203c-25.113,2.27-46.453,1.703-46.453,1.703
			c-13.836-0.461-20.238,0.672-20.238,0.672s-5.512,1.922-2.023,5.73c0.398-0.359,1-0.438,1.438-0.082
			c3.898,3.145,10.801,3.469,16.352,3.723c0.902,0.043,1.773,0.082,2.586,0.137c8.902,0.539,12.172,0.598,23.926-0.02
			c0.594-0.07,1.152,0.445,1.191,1.066c0.027,0.621-0.449,1.148-1.074,1.184c-5.805,0.305-9.566,0.449-12.945,0.449
			c-3.52,0-6.633-0.152-11.23-0.434c-0.809-0.051-1.664-0.09-2.551-0.133c-5.887-0.27-13.203-0.609-17.672-4.223
			c-0.203-0.164-0.289-0.398-0.344-0.637c-7.852,1.988-2.699,8.719-2.699,8.719C299.137,356.09,300.035,356.625,301.219,357.168z"/>
		<path style="fill:#F4A69A;" d="M1965.613,364.34c-5.637,6.426-8.504,9.168-21.516,21l-0.754,0.293l-0.832-0.363
			c-0.426-0.461-0.391-1.176,0.074-1.594c14.715-13.398,16.258-14.934,23.621-23.469c0.328-0.375,0.82-0.398,1.25-0.23
			c1.605-3.852,2.41-7.652,1.664-11c0,0-0.023-1.926-2.707-1.984c-0.773,0.93-1.555,1.863-2.262,2.715
			c-3.594,4.375-6.703,8.152-13.223,14.344l-0.727,0.691c-6.105,5.809-11.871,11.293-17.82,14.93l-0.586,0.164l-0.965-0.539
			c-0.32-0.527-0.148-1.227,0.375-1.551c5.75-3.508,11.426-8.918,17.441-14.637l0.727-0.691c6.418-6.098,9.492-9.828,13.043-14.137
			c0.996-1.215,2.031-2.477,3.195-3.852c0.344-0.402,0.895-0.43,1.34-0.207c0.602-1.16,0.977-2.137,0.949-2.773
			c0,0-0.102-8.477-7.5-5.188c0.098,0.219,0.176,0.457,0.117,0.711c-1.281,5.602-6.828,10.383-11.281,14.227
			c-0.676,0.582-1.328,1.145-1.938,1.684c-6.758,6.008-9.324,8.109-19.031,14.918l-0.648,0.207l-0.918-0.484
			c-0.359-0.508-0.234-1.211,0.277-1.566c9.602-6.746,12.141-8.82,18.824-14.758c0.617-0.547,1.277-1.117,1.957-1.707
			c4.211-3.629,9.445-8.141,10.563-13.023c0.125-0.543,0.637-0.855,1.18-0.82c0.395-5.148-5.121-3.262-5.121-3.262
			s-5.742,3.066-16.344,11.973c0,0-15.801,13.086-36.336,26.523c0.324,2.484,1.109,4.918,1.93,7.273
			c0.91,2.621,1.852,5.328,2.07,8.098c0.461,6.063-4.129,13.648-5.637,16.145l-0.965,0.539l-0.586-0.16
			c-0.531-0.32-0.699-1.016-0.379-1.547c1.418-2.34,5.723-9.461,5.32-14.801c-0.195-2.477-1.047-4.938-1.953-7.539
			c-0.938-2.695-1.906-5.48-2.18-8.477c-0.059-0.609,0.391-1.141,0.996-1.215c-0.469-5.707-2.543-19.273-11.895-18.828
			l-2.723,31.805l0.02,15.516l0.016,10.066l-1.824-2.188c-15.348,6.91-29.246,13.27-41.969,19.164
			c0.008,0.004,0.012,0.004,0.012,0.008c0.258,0.57,0,1.238-0.566,1.484c-11.355,5.043-27.547,12.922-40.555,19.25
			c-6.57,3.203-12.434,6.047-16.609,8.02c-8.621,4.07-19.879,9.855-29.801,14.961c-4.207,2.164-8.219,4.23-11.785,6.035
			c-8.402,4.258-15.863,8.813-22.559,13.539l-1.426-1.363c-4.5,20.98-17.465,63.316-52.434,99.113
			c3.02,1.367,5.922,2.387,8.637,2.895c4.617,1.387,8.93,1.727,12.969,1.242c28.641,1.398,67.344-25.098,67.344-25.098
			l145.652-135.008l1.844-1.703l25.695-15.773c0,0,22.688-16.133,30.984-28.18C1959.348,384.156,1974.727,358.227,1965.613,364.34z"
			/>
		<path style="fill:#F4A69A;" d="M1208.012,585.047l94.438,103.266c-0.117,0.266-0.188,0.441-0.188,0.441
			c0.875,0.582,1.707,1.305,2.527,2.109l0.434,0.48c5.664,5.942,10.117,16.442,15.773,21.277c10.441,8.93,21.305,9.695,31.324,9.227
			c2.816-0.133,5.563-0.352,8.215-0.527c14.012-0.934,25.59-5.891,39.621-6.164c14.332-0.289,25,11.074,32.621,8.527
			c1.012-13.453-14.754-19.269-33.266-21.672c11.363-0.496,19.371,2.426,24.605,4.711c8.258,3.582,20.332,17.344,24.016,10.078
			c0.398-15.793-32.086-29.367-47.551-28.68c7.004-1.098,24.195,2.148,32.672,6.609c7.063,3.73,25.492,19.391,26.938,14.086
			c3.133-14.008-11.16-23.031-39.211-30.008c11.766,0.391,25.77,7.844,36.996,8.625c6.684-20.539-48.5-27.043-66.164-26.602
			c-7.113,0.176-15.238,0.438-23.426,0.949c-6.625,0.41-13.262,0.996-19.449,1.82c-5.398-9.699-10.461-18.699-15.219-27.078
			l-0.547,0.148l-0.98-0.563c-7.371-12.762-14.25-23.57-20.898-34.02c-7.309-11.477-14.32-22.516-21.242-35.008
			c-1.09,0.676-2.18,1.387-3.27,2.024c-14.039-9.828-26.359-22.512-36.879-35.988c-12.535-16.063-23.125-33.902-31.754-52.629
			c-1.477-3.207-2.875-6.445-4.234-9.703l-11.957,11.383c-13.527,9.375-19.555,20.938-21.008,32.914
			c-2.719,22.352,10.262,46.043,19.188,59.324C1204.574,581,1208.012,585.047,1208.012,585.047z"/>
		<path style="fill:#F4A69A;" d="M1292.086,566.106c6.621,11.938,13.34,22.57,20.32,33.535
			C1304.387,586.051,1297.684,575.047,1292.086,566.106z"/>
		<path style="fill:#F4A69A;" d="M1842.07,1279.008c-1.234,0.094-2.738,0.738-5.059,2.445c-8.898,6.559-20.043,8.41-25.801,13.207
			c-4.035,3.375-11.566,11.808-16.285,20.781c-2.934,5.57-4.77,11.344-4.023,16.254l-113.898,108.488l-33.121,31.539
			c0,0-35.762,32.098-35.688,66.172c0.023,13.352,5.555,27.008,20.895,39.152c39.93,28.93,73.316-15.52,73.316-15.52
			l126.363-215.238c7.734,0.988,16.582,1.676,23.754,0.301c5.953-1.145,10.754-3.711,12.785-8.742
			c1.879-4.672,3.27-8.098,4.25-10.836c-4.215,3.152-10.238,6.5-17.063,6.734h-0.039c-0.605,0-1.105-0.48-1.133-1.09
			c-0.02-0.621,0.469-1.141,1.086-1.164c6.969-0.234,13.141-4.082,17.09-7.269c0.301-0.246,0.66-0.25,1.004-0.152
			c1.461-5.094,0.852-7.66-1.211-13.484c-3.754,4.164-12.602,10.074-19.043,10.074c-0.848,0-1.648-0.102-2.395-0.324
			c-0.598-0.184-0.934-0.805-0.758-1.406c0.176-0.598,0.805-0.926,1.406-0.758c4.984,1.504,15.512-4.75,19.473-9.473
			c0.145-0.172,0.352-0.219,0.547-0.281c-1.289-3.617-2.973-8.375-4.961-15.305l-7.52-6.051
			c35.547-23.805,26.141-31.984,26.141-31.984L1842.07,1279.008z M1862.156,1294.766c0.379-0.492,1.086-0.574,1.578-0.191
			c0.492,0.387,0.574,1.094,0.195,1.578c-6.484,8.262-12.883,9.527-19.066,10.75l-0.223,0.023c-0.527,0-0.992-0.375-1.102-0.91
			c-0.125-0.609,0.273-1.203,0.887-1.32C1850.469,1303.496,1856.18,1302.359,1862.156,1294.766z"/>
		<path style="fill:#F4A69A;" d="M1507.785,1359.543l-8.504,1.754l-2.738,0.57l-7.629,1.574c-1.199-0.316-2.836-0.203-5.59,0.652
			c-9,2.793-18.402,1.84-25.336,3.125c-1.191,0.223-2.332,0.496-3.367,0.883c-7.973,3.023-28.961,15.574-31.336,28.324l-9.281,4.223
			l-28.477,12.957l-2.055,0.93l-144.992,65.957c0,0-11.402,4.805-24.078,13.715c-7.297,5.125-14.984,11.617-21.203,19.348
			c-11.891,14.781-18.285,34.09-5.848,57.082c0.809,1.492,1.641,2.984,2.609,4.512c28.23,40.422,74.348,9.379,74.348,9.379
			l19.004-16.191l128.672-109.656l42.293-36.043c1.27,0.629,2.578,1.258,3.91,1.875c12.098,5.637,26.293,10.254,33.375,2.137
			c3.316-3.805,5.758-6.59,7.578-8.859c-3.129,1.004-6.914,1.848-10.941,1.848c-2.434,0-4.938-0.309-7.395-1.066
			c-0.594-0.188-0.93-0.82-0.746-1.41c0.188-0.594,0.809-0.934,1.41-0.746c6.652,2.066,13.742,0.449,18.523-1.27
			c0.359-0.125,0.699-0.016,0.992,0.195c3.055-4.336,3.32-6.953,3.285-13.129c-3.684,2.023-10.355,4.02-16.035,4.02
			c-2.922,0-5.578-0.527-7.414-1.852c-0.504-0.367-0.621-1.074-0.254-1.574c0.367-0.508,1.066-0.625,1.57-0.254
			c4.227,3.043,16.211,0.598,21.508-2.563c0.191-0.113,0.406-0.094,0.609-0.09c-0.035-3.84-0.055-8.887,0.336-16.082l-5.125-8.18
			c3.484-0.91,6.652-1.828,9.492-2.726c30.906-9.848,25.695-18.918,25.695-18.918L1507.785,1359.543z M1502.711,1384.914
			c0.523-0.344,1.223-0.188,1.563,0.336c0.332,0.52,0.18,1.223-0.34,1.559c-5.59,3.586-10.219,4.547-14.453,4.547
			c-2.457,0-4.789-0.328-7.086-0.648c-0.613-0.082-1.043-0.652-0.957-1.273c0.09-0.613,0.652-1.043,1.273-0.957
			C1488.816,1389.328,1494.582,1390.137,1502.711,1384.914z"/>
		<path style="fill:#F4A69A;" d="M807.484,1589.016c6.992-10.984,13.723-21.629,20.355-33.59
			C822.234,1564.379,815.519,1575.395,807.484,1589.016z"/>
		<path style="fill:#F4A69A;" d="M917.965,1471.539l-11.977-11.395c-1.352,3.254-2.75,6.492-4.227,9.699
			c-8.629,18.727-19.223,36.57-31.758,52.629c-10.523,13.48-22.844,26.168-36.875,35.988c-1.094-0.637-2.184-1.348-3.273-2.023
			c-6.922,12.492-13.941,23.539-21.242,35.016c-6.656,10.445-13.535,21.25-20.902,34.012l-0.977,0.563l-0.551-0.152
			c-4.758,8.379-9.82,17.383-15.219,27.086c-6.191-0.824-12.824-1.41-19.449-1.824c-8.184-0.512-16.305-0.773-23.426-0.949
			c-17.664-0.445-72.852,6.063-66.156,26.602c11.227-0.781,25.227-8.234,36.988-8.625c-28.055,6.984-42.34,16.008-39.211,30.012
			c1.453,5.309,19.879-10.363,26.938-14.09c8.477-4.457,25.668-7.703,32.676-6.609c-15.461-0.688-47.949,12.891-47.555,28.688
			c3.684,7.262,15.762-6.5,24.016-10.086c5.242-2.285,13.242-5.211,24.613-4.707c-18.508,2.398-34.281,8.215-33.273,21.672
			c7.625,2.543,18.293-8.82,32.625-8.531c14.027,0.277,25.609,5.238,39.625,6.164c2.644,0.172,5.398,0.395,8.207,0.527
			c10.02,0.469,20.883-0.297,31.324-9.223c5.652-4.828,10.102-15.305,15.758-21.254l0.461-0.512
			c0.813-0.805,1.648-1.527,2.516-2.105c0,0-0.07-0.176-0.188-0.445l94.438-103.258
			C911.891,1574.406,969.25,1507.105,917.965,1471.539z"/>
		<path style="fill:#F4A69A;" d="M686.019,1405.793c0.422-0.563,0.766-1.027,1.156-1.551c2.418-3.246,4.305-5.805,5.719-7.875
			c-3.586,1.457-8.098,2.781-12.914,2.781c-1.754,0-3.539-0.168-5.312-0.574c-0.609-0.137-0.988-0.742-0.848-1.348
			c0.133-0.605,0.738-0.996,1.344-0.848c6.797,1.531,13.742-0.625,18.371-2.699c0.344-0.164,0.699-0.074,1.008,0.109
			c2.707-4.559,2.766-7.191,2.25-13.348c-3.859,2.531-11.344,5.324-17.348,5.324c-2.262,0-4.305-0.395-5.859-1.344
			c-0.535-0.32-0.699-1.016-0.379-1.551c0.328-0.531,1.02-0.695,1.555-0.375c4.438,2.715,16.215-0.66,21.242-4.219
			c0.18-0.125,0.391-0.125,0.598-0.137c-0.328-3.824-0.742-8.852-0.91-16.059l-3.652-4.934l-2.086-2.828
			c1.535-0.531,3-1.055,4.402-1.582c35.488-13.195,29-22.723,29-22.723l-13.816,3.988l-31.059,8.98
			c-1.219-0.223-2.844,0.02-5.516,1.082c-10.273,4.082-21.519,3.051-28.308,6.223c-7.723,3.629-27.672,17.766-29.047,30.668
			l-129.152,71.305l-48.59,26.824c0,0-15.484,7.977-29.688,21.504c-2.594-7.457-4.484-14.184-5.844-19.828
			c-9.883,14.418-17.351,30.109-17.277,44.555c0,0-1.219,10.031,0.051,21.887c0.16,4.023,0.937,8.184,2.336,12.441
			c1.793,6.387,4.652,12.484,9.082,17.129c0.109,0.148,0.184,0.289,0.297,0.434c23.602,28.762,54.199,16.168,67.797,8.25
			c4.422-2.574,7.059-4.652,7.059-4.652l38.629-38.469l1.875-1.867l136.352-135.785
			C661.781,1410.023,678.875,1415.387,686.019,1405.793z M674.238,1368.426c6.148,0.379,11.969,0.73,19.672-5.105
			c0.484-0.375,1.195-0.277,1.578,0.219c0.371,0.492,0.273,1.199-0.219,1.578c-6.355,4.816-11.637,5.746-16.566,5.746
			c-1.563,0-3.09-0.094-4.605-0.188c-0.621-0.039-1.094-0.574-1.055-1.191C673.086,1368.859,673.617,1368.344,674.238,1368.426z"/>
	</g>
	<path style="fill:#21263D;" d="M674.238,1368.426c-0.621-0.082-1.152,0.434-1.195,1.059c-0.039,0.617,0.434,1.152,1.055,1.191
		c1.516,0.094,3.043,0.188,4.605,0.188c4.93,0,10.211-0.93,16.566-5.746c0.492-0.379,0.59-1.086,0.219-1.578
		c-0.383-0.496-1.094-0.594-1.578-0.219C686.207,1369.156,680.387,1368.805,674.238,1368.426z"/>
	<path style="fill:#21263D;" d="M674.762,1382.496c-0.535-0.32-1.227-0.156-1.555,0.375c-0.32,0.535-0.156,1.23,0.379,1.551
		c1.555,0.949,3.598,1.344,5.859,1.344c6.004,0,13.488-2.793,17.348-5.324c0.164-0.102,0.367-0.215,0.516-0.32
		c0.504-0.359,0.625-1.063,0.269-1.574c-0.234-0.328-0.602-0.426-0.977-0.406c-0.207,0.012-0.418,0.012-0.598,0.137
		C690.977,1381.836,679.199,1385.211,674.762,1382.496z"/>
	<path style="fill:#21263D;" d="M693.535,1393.68c-4.629,2.074-11.574,4.231-18.371,2.699c-0.605-0.148-1.211,0.242-1.344,0.848
		c-0.141,0.605,0.238,1.211,0.848,1.348c1.773,0.406,3.559,0.574,5.312,0.574c4.816,0,9.328-1.324,12.914-2.781
		c0.524-0.211,1.082-0.418,1.566-0.633c0.563-0.258,0.816-0.926,0.563-1.492c-0.098-0.219-0.293-0.34-0.48-0.453
		C694.234,1393.605,693.879,1393.516,693.535,1393.68z"/>
	<path style="fill:#21263D;" d="M626.215,1883.125c0.02,0,0.039-0.023,0.059-0.023c0.586-0.039,1.066-0.512,1.063-1.105
		l-0.305-63.266c-0.211,0.227-0.488,0.383-0.82,0.383c-0.625,0-1.125-0.504-1.125-1.129v-1.129h-13.59v-78.551
		c0-0.621-0.504-1.125-1.129-1.125c-0.617,0-1.125,0.504-1.125,1.125v79.68c0,0.625,0.508,1.129,1.125,1.129h14.406l0.313,62.891
		c0,0.582,0.457,1.027,1.027,1.082c0.039,0,0.059,0.039,0.098,0.039H626.215z"/>
	<path style="fill:#21263D;" d="M626.211,1819.113c0.332,0,0.609-0.156,0.82-0.383c0.18-0.199,0.305-0.453,0.305-0.746v-94.707
		c0-0.621-0.5-1.125-1.125-1.125s-1.125,0.504-1.125,1.125v93.578v1.129C625.086,1818.609,625.586,1819.113,626.211,1819.113z"/>
	<path style="fill:#21263D;" d="M731.137,1644c0.609-0.113,1.008-0.703,0.891-1.316c-0.113-0.609-0.695-1.012-1.308-0.895
		c-95.586,17.777-192.527,0.18-193.492,0c-0.621-0.117-1.207,0.285-1.313,0.895c-0.117,0.613,0.285,1.203,0.895,1.316
		c0.648,0.121,43.906,7.98,101.051,7.98C666.648,1651.98,698.965,1649.984,731.137,1644z"/>
	<path style="fill:#A46C34;" d="M682.789,1137.289c-15.637-10.602-39.547-13.746-57.492-8.078
		c-8.805,2.785-20.816,8.324-12.668,16.738c2.355,2.434,4.43,4.57,6.277,6.691c4.375,5.02,7.379,9.93,8.992,18.422
		c0.93,4.875,1.758,9.746,2.543,14.621c0.09,0.566,0.176,1.133,0.262,1.707c1.629,10.32,2.973,20.652,3.992,31.039
		c1.109,11.316,1.832,22.699,2.465,34.109c0.078,1.422,0.164,2.84,0.242,4.262c0.828,15.754,1.5,31.566,2.481,47.441
		c0.023,0.453,0.043,0.902,0.074,1.356c0.891,14.078,13.047,5.426,21.109-1.356c1.301-1.094,2.492-2.133,3.516-3.031
		c0.055-0.043,0.113-0.098,0.168-0.141c9.277-8.109,19.664-15.336,27.234-25.34c15.707-20.754,16.875-46.023,14.125-70.824
		c-0.594-5.34-1.094-11.387-1.824-17.656c-1.148-9.914-2.906-20.387-6.473-29.59
		C694.594,1149.379,689.922,1142.117,682.789,1137.289z"/>
</g>
</svg>
