<?xml version="1.0" standalone="no"?>
<svg viewBox="0 0 200 200" xmlns="http://www.w3.org/2000/svg">
  <path fill="#0F62FE" d="M41.3,-71.8C52.5,-65.1,59.8,-51.9,65.8,-38.9C71.8,-25.8,76.5,-12.9,78.9,1.4C81.3,15.6,81.2,31.3,75.7,45.1C70.1,58.9,59,70.9,45.4,78.9C31.9,86.9,15.9,90.9,0.4,90.3C-15.2,89.7,-30.5,84.4,-43.4,76.1C-56.3,67.7,-66.8,56.2,-74.5,43C-82.2,29.8,-87,14.9,-86.1,0.6C-85.1,-13.8,-78.3,-27.5,-70.6,-40.7C-62.9,-53.8,-54.1,-66.2,-42.2,-72.4C-30.3,-78.6,-15.1,-78.6,0,-78.5C15.1,-78.5,30.2,-78.4,41.3,-71.8Z" transform="translate(100 100)" />
</svg>
