<svg fill="white" xmlns="http://www.w3.org/2000/svg" height="40" viewBox="0 -960 960 960" width="40"><path d="M361.999-413.334h203.334V-480H361.999v66.666Zm0-99.999H732v-66.666H361.999v66.666Zm0-100H732v-66.666H361.999v66.666Zm-82 400q-27 0-46.833-19.833t-19.833-46.833v-533.335q0-27 19.833-46.833T279.999-880h533.335q27 0 46.833 19.833T880-813.334v533.335q0 27-19.833 46.833t-46.833 19.833H279.999Zm0-66.666h533.335v-533.335H279.999v533.335ZM146.666-80q-27 0-46.833-19.833T80-146.666v-600.001h66.666v600.001h600.001V-80H146.666Zm133.333-733.334v533.335-533.335Z"/></svg>