<?xml version="1.0" encoding="UTF-8" standalone="no" ?>
<!DOCTYPE svg PUBLIC "-//W3C//DTD SVG 1.1//EN" "http://www.w3.org/Graphics/SVG/1.1/DTD/svg11.dtd">
<svg xmlns="http://www.w3.org/2000/svg" xmlns:xlink="http://www.w3.org/1999/xlink" version="1.1" width="1080" height="1080" viewBox="0 0 1080 1080" xml:space="preserve">
<desc>Created with Fabric.js 5.2.4</desc>
<defs>
</defs>
<rect x="0" y="0" width="100%" height="100%" fill="transparent"></rect>
<g transform="matrix(1 0 0 1 540 540)" id="30592080-0103-4b5f-8bac-dd400f2910d9"  >
<rect style="stroke: none; stroke-width: 1; stroke-dasharray: none; stroke-linecap: butt; stroke-dashoffset: 0; stroke-linejoin: miter; stroke-miterlimit: 4; fill: rgb(255,255,255); fill-rule: nonzero; opacity: 1; visibility: hidden;" vector-effect="non-scaling-stroke"  x="-540" y="-540" rx="0" ry="0" width="1080" height="1080" />
</g>
<g transform="matrix(1 0 0 1 540 540)" id="32308134-1233-4e57-b089-b1a18c222cf9"  >
</g>
<g transform="matrix(4.18 0 0 4.18 540 540)"  >
<g style="" vector-effect="non-scaling-stroke"   >
		<g transform="matrix(2.81 0 0 2.81 0 0)"  >
<path style="stroke: none; stroke-width: 1; stroke-dasharray: none; stroke-linecap: butt; stroke-dashoffset: 0; stroke-linejoin: miter; stroke-miterlimit: 10; fill: rgb(255,255,255); fill-rule: nonzero; opacity: 1;" vector-effect="non-scaling-stroke"  transform=" translate(-45, -45)" d="M 75.546 78.738 L 14.455 78.738 C 6.484 78.738 0 72.254 0 64.283 L 0 25.716 C 0 17.746000000000002 6.485 11.261000000000001 14.455 11.261000000000001 L 75.546 11.261000000000001 C 83.516 11.261000000000001 90 17.746000000000002 90 25.716 L 90 64.283 C 90 72.254 83.516 78.738 75.546 78.738 z M 14.455 15.488 C 8.815000000000001 15.488 4.227 20.076 4.227 25.716 L 4.227 64.283 C 4.227 69.923 8.815000000000001 74.512 14.455 74.512 L 75.546 74.512 C 81.186 74.512 85.774 69.923 85.774 64.283 L 85.774 25.716 C 85.774 20.076 81.186 15.488000000000001 75.546 15.488000000000001 L 14.455 15.488000000000001 z" stroke-linecap="round" />
</g>
		<g transform="matrix(2.81 0 0 2.81 -45.54 -13.59)"  >
<path style="stroke: none; stroke-width: 1; stroke-dasharray: none; stroke-linecap: butt; stroke-dashoffset: 0; stroke-linejoin: miter; stroke-miterlimit: 10; fill: rgb(255,255,255); fill-rule: nonzero; opacity: 1;" vector-effect="non-scaling-stroke"  transform=" translate(-28.79, -40.16)" d="M 11.044 25.917 C 21.848 36.445 32.652 46.972 43.456 57.5 C 45.470000000000006 59.462 48.56100000000001 56.378 46.544000000000004 54.412 C 35.74 43.885 24.936 33.357 14.132 22.83 C 12.118 20.867 9.027 23.952 11.044 25.917 L 11.044 25.917 z" stroke-linecap="round" />
</g>
		<g transform="matrix(2.81 0 0 2.81 45.54 -13.58)"  >
<path style="stroke: none; stroke-width: 1; stroke-dasharray: none; stroke-linecap: butt; stroke-dashoffset: 0; stroke-linejoin: miter; stroke-miterlimit: 10; fill: rgb(255,255,255); fill-rule: nonzero; opacity: 1;" vector-effect="non-scaling-stroke"  transform=" translate(-61.21, -40.17)" d="M 46.544 57.5 C 57.348 46.973 68.152 36.445 78.95599999999999 25.918 C 80.972 23.953 77.883 20.866999999999997 75.868 22.83 C 65.064 33.357 54.26 43.885 43.456 54.412 C 41.44 56.377 44.529 59.463 46.544 57.5 L 46.544 57.5 z" stroke-linecap="round" />
</g>
		<g transform="matrix(2.81 0 0 2.81 60.44 31.67)"  >
<path style="stroke: none; stroke-width: 1; stroke-dasharray: none; stroke-linecap: butt; stroke-dashoffset: 0; stroke-linejoin: miter; stroke-miterlimit: 10; fill: rgb(255,255,255); fill-rule: nonzero; opacity: 1;" vector-effect="non-scaling-stroke"  transform=" translate(-66.51, -56.27)" d="M 78.837 64.952 C 71.648 58.134 64.458 51.317 57.269000000000005 44.498999999999995 C 55.230000000000004 42.565999999999995 52.13700000000001 45.647999999999996 54.181000000000004 47.586999999999996 C 61.370000000000005 54.404999999999994 68.56 61.221999999999994 75.74900000000001 68.03999999999999 C 77.788 69.973 80.881 66.89 78.837 64.952 L 78.837 64.952 z" stroke-linecap="round" />
</g>
		<g transform="matrix(2.81 0 0 2.81 -59.89 31.67)"  >
<path style="stroke: none; stroke-width: 1; stroke-dasharray: none; stroke-linecap: butt; stroke-dashoffset: 0; stroke-linejoin: miter; stroke-miterlimit: 10; fill: rgb(255,255,255); fill-rule: nonzero; opacity: 1;" vector-effect="non-scaling-stroke"  transform=" translate(-23.69, -56.27)" d="M 14.446 68.039 C 21.634999999999998 61.221000000000004 28.825 54.404 36.014 47.586 C 38.057 45.647999999999996 34.966 42.564 32.926 44.498 C 25.737000000000002 51.315999999999995 18.547000000000004 58.132999999999996 11.358 64.951 C 9.315 66.889 12.406 69.974 14.446 68.039 L 14.446 68.039 z" stroke-linecap="round" />
</g>
</g>
</g>
</svg>